<?xml version="1.0" standalone="no"?>
<!DOCTYPE svg PUBLIC "-//W3C//DTD SVG 1.1//EN" "http://www.w3.org/Graphics/SVG/1.1/DTD/svg11.dtd" >
<svg xmlns="http://www.w3.org/2000/svg">
<metadata>Generated by IcoMoon</metadata>
<defs>
<font id="alalfy_health_icons" horiz-adv-x="1024">
<font-face units-per-em="1024" ascent="960" descent="-64" />
<missing-glyph horiz-adv-x="1024" />
<glyph unicode="&#x20;" horiz-adv-x="512" d="" />
<glyph unicode="&#xe900;" glyph-name="x4" d="M359.183 476.704c-4.574-17.071-22.121-27.202-39.191-22.628s-27.202 22.121-22.628 39.191c4.576 17.071 22.123 27.202 39.194 22.628s27.2-22.121 22.626-39.191zM690.908 354.69c17.071-4.576 34.618 5.555 39.191 22.626s-5.557 34.618-22.628 39.191c-17.071 4.574-34.618-5.555-39.191-22.626s5.557-34.618 22.628-39.191zM281.739 641.013c-22.763 6.099-36.269 29.493-30.172 52.256l19.326 72.122c6.099 22.761 29.495 36.269 52.256 30.17l31.765-8.511c12.738 27.923 44.137 43.388 74.767 35.181l350.308-93.866c30.633-8.207 50.091-37.299 47.162-67.851l31.765-8.512c22.761-6.099 36.269-29.493 30.17-52.256l-19.326-72.122c-6.099-22.761-29.493-36.269-52.256-30.17l-30.91 8.282-0.094-0.354c1.312-2.647 2.449-5.404 3.396-8.252l15.298-46.052c3.945-11.878 4.32-24.651 1.082-36.74l-28.162-105.103c-6.483-24.192-25.993-41.417-48.96-46.144l-20.373-76.032c-3.049-11.379-14.748-18.133-26.129-15.085l-82.426 22.086c-11.379 3.049-18.133 14.748-15.085 26.127l18.624 69.506-27.646 7.409c-0.009 0.002-0.019 0.004-0.028 0.006l-202.989 54.391-18.624-69.506c-3.049-11.381-14.748-18.135-26.127-15.085l-82.426 22.086c-11.381 3.049-18.135 14.746-15.085 26.127l19.298 72.028c-23.578 14.417-35.915 43.113-28.399 71.166l27.511 102.671c3.842 14.338 12.546 26.893 24.627 35.52l35.938 25.664 2.829 10.56-30.908 8.282zM312.107 754.348l-19.326-72.123 30.91-8.282 19.324 72.122-30.908 8.283zM607.742 332.802l103.031-27.607c11.381-3.051 23.078 3.703 26.129 15.085l28.162 105.101c1.079 4.030 0.954 8.288-0.363 12.247l-15.296 46.052c-2.261 6.807-7.795 12.023-14.724 13.882l-372.717 99.868c-6.157 1.651-12.73 0.461-17.918-3.245l-45.374-32.399c-4.026-2.876-6.927-7.061-8.209-11.84l-27.509-102.673c-3.051-11.379 3.703-23.078 15.085-26.127l103.031-27.607 27.607 103.031c3.049 11.381 14.748 18.135 26.127 15.085l185.459-49.694c11.379-3.049 18.133-14.746 15.085-26.127l-27.607-103.031zM422.285 382.494l51.516-13.803 14.257 53.214c3.051 11.381 14.748 18.133 26.129 15.085s18.133-14.748 15.085-26.127l-14.259-53.214 51.516-13.805 22.086 82.426-144.245 38.65-22.084-82.426zM816.962 619.072l-19.324-72.122 30.91-8.284 19.324 72.124-30.91 8.282zM784.032 661.024c3.051 11.381-3.703 23.078-15.085 26.129l-350.308 93.865c-11.377 3.048-23.070-3.699-26.125-15.071l-33.133-123.654 391.522-104.907 33.129 123.637zM234.667 234.662c-28.29 0-55.421-11.238-75.425-31.243s-31.242-47.134-31.242-75.424v-42.667c0-11.782 9.551-21.333 21.333-21.333s21.333 9.551 21.333 21.333v42.667c0 16.973 6.743 33.252 18.745 45.254s28.282 18.746 45.255 18.746c16.975 0 33.252-6.743 45.254-18.746s18.746-28.282 18.746-45.254v-21.333c0-11.782 9.551-21.333 21.333-21.333s21.333 9.551 21.333 21.333c0 11.315 4.495 22.167 12.497 30.17s18.854 12.497 30.17 12.497c11.315 0 22.167-4.495 30.17-12.497s12.497-18.854 12.497-30.17c0-11.782 9.551-21.333 21.333-21.333s21.333 9.551 21.333 21.333c0 5.658 2.249 11.083 6.249 15.085 4 4 9.427 6.249 15.085 6.249s11.085-2.249 15.085-6.249c4-4.002 6.249-9.427 6.249-15.085v-21.333c0-11.782 9.551-21.333 21.333-21.333 1.841 0 3.629 0.233 5.333 0.672 1.705-0.439 3.492-0.672 5.333-0.672h192c11.782 0 21.333 9.551 21.333 21.333s-9.551 21.333-21.333 21.333h-181.333c0 16.973-6.743 33.252-18.746 45.254s-28.279 18.746-45.254 18.746c-13.926 0-27.388-4.54-38.4-12.8-2.409 3.211-5.054 6.268-7.927 9.139-16.002 16.002-37.707 24.994-60.339 24.994-19.298 0-37.922-6.539-52.913-18.385-5.186 10.965-12.254 21.067-20.996 29.809-20.002 20.004-47.134 31.243-75.424 31.243z" />
<glyph unicode="&#xe901;" glyph-name="ambulance" d="M85.333 597.333c0 35.347 28.654 64 64 64h426.667c35.347 0 64-28.653 64-64v-42.667h121.984c16.090 0 31.588-6.059 43.411-16.973l112.681-104.015c13.126-12.115 20.591-29.165 20.591-47.027v-173.318h-128v42.667h85.333v130.652c0 5.954-2.487 11.637-6.863 15.676l-112.683 104.015c-3.94 3.637-9.107 5.658-14.47 5.658h-121.984v-256h42.667v-42.667h-362.667v42.667h277.333v341.333c0 11.782-9.551 21.333-21.333 21.333h-426.667c-11.782 0-21.333-9.551-21.333-21.333v-341.333h64v-42.667h-106.667v384zM256 192c-23.565 0-42.667 19.102-42.667 42.667s19.102 42.667 42.667 42.667c23.565 0 42.667-19.102 42.667-42.667s-19.102-42.667-42.667-42.667zM256 149.333c47.127 0 85.333 38.206 85.333 85.333s-38.206 85.333-85.333 85.333c-47.128 0-85.333-38.206-85.333-85.333s38.205-85.333 85.333-85.333zM746.667 192c-23.565 0-42.667 19.102-42.667 42.667s19.102 42.667 42.667 42.667c23.565 0 42.667-19.102 42.667-42.667s-19.102-42.667-42.667-42.667zM746.667 149.333c47.127 0 85.333 38.206 85.333 85.333s-38.206 85.333-85.333 85.333c-47.127 0-85.333-38.206-85.333-85.333s38.206-85.333 85.333-85.333zM917.333 362.667h-298.667v42.667h298.667v-42.667zM341.333 384v170.667h42.667v-170.667h-42.667zM704 618.667c11.782 0 21.333-9.551 21.333-21.333v-64h-42.667v64c0 11.782 9.551 21.333 21.333 21.333zM448 448h-170.667v42.667h170.667v-42.667zM746.667 533.333h-85.333v42.667h85.333v-42.667zM704 672c-11.782 0-21.333 9.551-21.333 21.333v32c0 11.782 9.551 21.333 21.333 21.333s21.333-9.551 21.333-21.333v-32c0-11.782-9.551-21.333-21.333-21.333zM778.667 597.333c0 11.782 9.551 21.333 21.333 21.333h32c11.782 0 21.333-9.551 21.333-21.333s-9.551-21.333-21.333-21.333h-32c-11.782 0-21.333 9.551-21.333 21.333zM762.859 657.675c-7.913 8.732-7.247 22.223 1.483 30.133l19.503 17.673c8.732 7.913 22.223 7.249 30.133-1.483 7.913-8.73 7.247-22.221-1.483-30.133l-19.503-17.673c-8.732-7.913-22.223-7.247-30.133 1.483z" />
<glyph unicode="&#xe902;" glyph-name="basic_motorcycle" d="M800 192c53.020 0 96 42.98 96 96s-42.98 96-96 96c-53.020 0-96-42.98-96-96s42.98-96 96-96zM800 149.333c-76.585 0-138.667 62.082-138.667 138.667s62.082 138.667 138.667 138.667c76.585 0 138.667-62.082 138.667-138.667s-62.082-138.667-138.667-138.667zM627.535 733.909c-3.405 7.75-11.068 12.757-19.535 12.757h-117.333v-42.667h103.401l186.398-424.576c4.738-10.788 17.323-15.695 28.111-10.957 10.788 4.736 15.693 17.321 10.957 28.109l-191.998 437.333zM224 192c53.020 0 96 42.98 96 96s-42.98 96-96 96c-53.019 0-96-42.98-96-96s42.981-96 96-96zM224 149.333c-76.583 0-138.667 62.082-138.667 138.667s62.083 138.667 138.667 138.667c76.585 0 138.667-62.082 138.667-138.667s-62.082-138.667-138.667-138.667zM717.453 475.223c-9.143 7.43-22.579 6.039-30.010-3.104l-132.265-162.786h-331.179c-11.782 0-21.333-9.551-21.333-21.333s9.551-21.333 21.333-21.333h341.333c6.423 0 12.506 2.895 16.557 7.881l138.667 170.667c7.43 9.143 6.039 22.579-3.104 30.010zM659.268 618.667h-67.661c-87.501 0-163.885-59.277-185.606-144.036l20.666-5.297v-21.333h277.333v42.667h-247.078c24.222 51.341 76.267 85.333 134.686 85.333h67.661v42.667zM353.103 570.014c-3.977 3.84-9.289 5.986-14.818 5.986h-188.951c-11.782 0-21.333-9.551-21.333-21.333v-85.333c0-11.782 9.551-21.333 21.333-21.333h277.333c8.698 0 16.523 5.28 19.78 13.342 3.258 8.064 1.295 17.297-4.962 23.339l-88.382 85.333zM329.668 533.333l44.19-42.667h-203.191v42.667h159.002zM827.411 669.297l-163.070-62.72 15.317-39.821 114.263 43.947 12.19-73.135-109.534 16.851-6.49-42.172 167.799-25.815-30.477 182.865zM482.684 277.641l-53.333 96 37.299 20.719 53.333-96-37.299-20.719zM597.333 490.667h-192c-35.347 0-64-28.653-64-64s28.653-64 64-64h128c35.347 0 64 28.653 64 64v64zM554.667 448v-21.333c0-11.782-9.551-21.333-21.333-21.333h-128c-11.782 0-21.333 9.551-21.333 21.333s9.551 21.333 21.333 21.333h149.333z" />
<glyph unicode="&#xe903;" glyph-name="bike" d="M762.564 700.363l-105.103-31.531 69.978-183.014c13.001 3.168 26.583 4.849 40.561 4.849 94.257 0 170.667-76.41 170.667-170.667s-76.41-170.667-170.667-170.667c-94.257 0-170.667 76.41-170.667 170.667 0 65.182 36.54 121.828 90.255 150.573l-35.151 91.93-121.216-251.757c-3.556-7.386-11.025-12.079-19.221-12.079h-86.654c-10.498-84.188-82.315-149.333-169.346-149.333-94.257 0-170.667 76.41-170.667 170.667s76.41 170.667 170.667 170.667c87.031 0 158.848-65.146 169.346-149.333h53.333l-104.102 291.492c-0.847 2.37-1.25 4.794-1.25 7.174h-31.994c-11.782 0-21.333 9.551-21.333 21.333s9.551 21.333 21.333 21.333h96c11.782 0 21.333-9.551 21.333-21.333s-9.551-21.333-21.333-21.333h-20.013l39.294-110.025 173.372 91.247-20.58 53.824c-2.116 5.54-1.833 11.712 0.783 17.035 2.618 5.321 7.334 9.314 13.015 11.019l127.1 38.129 12.26-40.866zM471.11 489.389l42.063-117.777 90.231 187.405-132.294-69.628zM748.073 312.38l-45.082 117.907c-37.702-22.272-62.991-63.326-62.991-110.287 0-70.692 57.308-128 128-128s128 57.308 128 128c0 70.692-57.308 128-128 128-8.61 0-17.024-0.851-25.156-2.47l45.084-117.911c4.207-11.006-1.303-23.339-12.309-27.546-11.004-4.209-23.337 1.301-27.546 12.307zM382.229 341.333h-126.229c-11.782 0-21.333-9.551-21.333-21.333s9.551-21.333 21.333-21.333h126.229c-10.155-60.538-62.805-106.667-126.229-106.667-70.692 0-128 57.308-128 128s57.308 128 128 128c63.424 0 116.075-46.129 126.229-106.667z" />
<glyph unicode="&#xe904;" glyph-name="cross_country_motorcycle" d="M800 192c53.020 0 96 42.98 96 96s-42.98 96-96 96c-53.020 0-96-42.98-96-96s42.98-96 96-96zM800 149.333c-76.585 0-138.667 62.082-138.667 138.667s62.082 138.667 138.667 138.667c76.585 0 138.667-62.082 138.667-138.667s-62.082-138.667-138.667-138.667zM616.689 734.304c-3.492 7.539-11.046 12.363-19.356 12.363h-106.667v-42.667h93.041l196.937-424.971c4.954-10.69 17.636-15.339 28.326-10.385s15.339 17.636 10.385 28.326l-202.667 437.333zM224 192c53.020 0 96 42.98 96 96s-42.98 96-96 96c-53.019 0-96-42.98-96-96s42.981-96 96-96zM224 149.333c-76.583 0-138.667 62.082-138.667 138.667s62.083 138.667 138.667 138.667c76.585 0 138.667-62.082 138.667-138.667s-62.082-138.667-138.667-138.667zM458.667 288c0-11.782-9.553-21.333-21.333-21.333h-213.333c-11.782 0-21.333 9.551-21.333 21.333s9.551 21.333 21.333 21.333h213.333c11.78 0 21.333-9.551 21.333-21.333zM661.333 618.667h-171.036c-20.917 0-41.694-3.418-61.508-10.118l-94.291-31.887c-6.394-2.163-11.386-7.221-13.463-13.643s-0.994-13.446 2.923-18.944l92.442-129.786c4.004-5.619 10.477-8.956 17.376-8.956h174.225c5.225 0 10.268 1.918 14.172 5.389l96 85.333-28.346 31.889-89.937-79.945h-155.117l-69.406 97.44 67.091 22.69c15.411 5.212 31.571 7.87 47.84 7.87h171.036v42.667zM128 533.333h215.11v42.667h-236.444c-11.782 0-21.333-9.551-21.333-21.333v-74.667c0-10.931 8.264-20.096 19.138-21.22l309.333-32 4.39 42.441-290.195 30.020v34.093zM618.667 448h-149.333c-35.347 0-64-28.653-64-64v-64c0-35.347 28.653-64 64-64h85.333c35.347 0 64 28.653 64 64v128zM576 405.333v-85.333c0-11.782-9.551-21.333-21.333-21.333h-85.333c-11.782 0-21.333 9.551-21.333 21.333v64c0 11.782 9.551 21.333 21.333 21.333h106.667zM776.055 654.048c-4.051 4.629-9.903 7.285-16.055 7.285h-141.333v-42.667h131.652l56-64h-123.652v-42.667h170.667c8.371 0 15.968 4.896 19.426 12.518 3.46 7.622 2.142 16.563-3.371 22.863l-93.333 106.667z" />
<glyph unicode="&#xe905;" glyph-name="drone" d="M277.333 106.667c-58.91 0-106.667 47.757-106.667 106.667s47.757 106.667 106.667 106.667c58.91 0 106.667-47.757 106.667-106.667s-47.757-106.667-106.667-106.667zM277.333 64c82.475 0 149.333 66.859 149.333 149.333s-66.859 149.333-149.333 149.333c-82.474 0-149.333-66.859-149.333-149.333s66.859-149.333 149.333-149.333zM314.667 213.333c0-20.619-16.715-37.333-37.333-37.333s-37.333 16.715-37.333 37.333c0 20.619 16.715 37.333 37.333 37.333s37.333-16.715 37.333-37.333zM746.667 106.667c-58.91 0-106.667 47.757-106.667 106.667s47.757 106.667 106.667 106.667c58.91 0 106.667-47.757 106.667-106.667s-47.757-106.667-106.667-106.667zM746.667 64c82.475 0 149.333 66.859 149.333 149.333s-66.859 149.333-149.333 149.333c-82.475 0-149.333-66.859-149.333-149.333s66.859-149.333 149.333-149.333zM784 213.333c0-20.619-16.715-37.333-37.333-37.333s-37.333 16.715-37.333 37.333c0 20.619 16.715 37.333 37.333 37.333s37.333-16.715 37.333-37.333zM746.667 576c-58.91 0-106.667 47.757-106.667 106.667s47.757 106.667 106.667 106.667c58.91 0 106.667-47.757 106.667-106.667s-47.757-106.667-106.667-106.667zM746.667 533.333c82.475 0 149.333 66.859 149.333 149.333s-66.859 149.333-149.333 149.333c-82.475 0-149.333-66.859-149.333-149.333s66.859-149.333 149.333-149.333zM784 682.667c0-20.619-16.715-37.333-37.333-37.333s-37.333 16.715-37.333 37.333c0 20.619 16.715 37.333 37.333 37.333s37.333-16.715 37.333-37.333zM277.333 576c-58.91 0-106.667 47.757-106.667 106.667s47.757 106.667 106.667 106.667c58.91 0 106.667-47.757 106.667-106.667s-47.757-106.667-106.667-106.667zM277.333 533.333c82.475 0 149.333 66.859 149.333 149.333s-66.859 149.333-149.333 149.333c-82.474 0-149.333-66.859-149.333-149.333s66.859-149.333 149.333-149.333zM314.667 682.667c0-20.619-16.715-37.333-37.333-37.333s-37.333 16.715-37.333 37.333c0 20.619 16.715 37.333 37.333 37.333s37.333-16.715 37.333-37.333zM399.36 452.789l-112.64 229.877 225.28-114.94 225.28 114.94-112.64-229.877 122.027-239.456-234.667 124.516-234.667-124.516 122.027 239.456zM381.365 586.479l56.309-114.916c5.907-12.053 5.796-26.185-0.299-38.146l-60.672-119.055 115.298 61.178c12.506 6.637 27.49 6.637 39.996 0l115.298-61.178-60.672 119.055c-6.095 11.962-6.206 26.093-0.299 38.146l56.309 114.916-111.245-56.757c-12.179-6.214-26.601-6.214-38.78 0l-111.245 56.757z" />
<glyph unicode="&#xe906;" glyph-name="helicopter" d="M898.556 614.97l38.541-94.944-39.533-16.049-35.509 87.479-200.813-16.892c-0.804-80.429-7.39-157.274-40.243-215.315-18.187-32.128-44.284-58.359-80.911-76.314-36.303-17.796-81.858-26.935-138.449-26.935-108.99 0-166.605 2.202-197.183 4.461-15.24 1.126-24.241 2.298-29.752 3.339-2.746 0.518-5.061 1.084-7.056 1.762-1.017 0.346-2.17 0.794-3.373 1.395-0.614 0.307-1.301 0.683-2.028 1.143-0.366 0.233-0.754 0.495-1.155 0.787-0.201 0.145-0.407 0.301-0.618 0.467l-0.319 0.254-0.162 0.134c-0.082 0.068-0.164 0.139 13.649 16.395-20.008-7.403-20.021-7.366-20.021-7.366l-0.016 0.043-0.039 0.109-0.108 0.301c-0.085 0.239-0.194 0.553-0.325 0.939-0.262 0.77-0.611 1.835-1.022 3.17-0.82 2.671-1.889 6.441-2.999 11.155-2.216 9.408-4.623 22.694-5.514 38.594-1.781 31.765 2.465 74.66 27.070 117.687 37.207 65.062 117.3 124.828 277.332 150.938v59.627c0 11.782 9.551 21.333 21.333 21.333s21.333-9.551 21.333-21.333v-53.705c44.075 5.111 93.485 7.906 148.836 7.923l220.324 18.532 37.139 118.942 40.727-12.717-39.138-125.34zM190.569 304.578c4.049-0.478 9.574-1.015 17.030-1.568 29.011-2.142 85.397-4.343 194.039-4.343 52.228 0 90.876 8.465 119.669 22.579 28.467 13.954 48.361 33.935 62.56 59.021 26.852 47.441 33.73 113.449 34.677 192.474-48.358-0.661-91.343-3.558-129.542-8.245-2.298-25.222-6.814-60.471-12.521-93.163-4.211-24.126-9.248-47.925-14.85-66.018-2.754-8.892-5.978-17.523-9.845-24.333-1.914-3.369-4.555-7.328-8.183-10.686-3.612-3.341-9.935-7.629-18.643-7.629h-238.272c-0.913-9.717-0.957-18.874-0.491-27.196 0.718-12.802 2.639-23.467 4.372-30.893zM445.506 558.057c-145.308-25.468-209.805-79.511-237.801-128.469-4.641-8.113-8.374-16.237-11.35-24.254h219.956c1.321 2.976 2.871 7.138 4.563 12.602 4.798 15.492 9.468 37.193 13.577 60.734 4.885 27.989 8.727 57.084 11.055 79.388zM173.641 286.138l-13.813-16.256c-2.791 2.37-4.924 5.419-6.195 8.853l20.008 7.403zM106.667 746.667c-11.782 0-21.333-9.551-21.333-21.333s9.551-21.333 21.333-21.333h704.102c11.782 0 21.333 9.551 21.333 21.333s-9.551 21.333-21.333 21.333h-704.102zM93.341 229.99c9.2 7.36 22.625 5.869 29.985-3.33 4.712-5.89 16.712-12.813 37.506-18.773 19.714-5.651 43.463-9.393 66.882-11.81 23.285-2.402 45.562-3.426 62.067-3.846 8.235-0.209 14.989-0.267 19.663-0.273 2.336-0.002 4.149 0.006 5.363 0.017l1.763 0.021 0.196 0.004h333.901c11.782 0 21.333-9.553 21.333-21.333 0-11.782-9.551-21.333-21.333-21.333l-335.488-0.023c-1.346-0.011-3.302-0.021-5.788-0.019-4.969 0.006-12.073 0.068-20.693 0.286-17.21 0.439-40.649 1.508-65.363 4.060-24.58 2.537-51.117 6.603-74.26 13.237-22.063 6.323-45.492 16.164-59.065 33.133-7.36 9.199-5.869 22.624 3.332 29.984z" />
<glyph unicode="&#xe907;" glyph-name="machinery" d="M633.865 443.974l-123.838-29.916c-6.972-1.683-13.587 3.855-13.152 11.012l0.747 12.348c5.617 92.755 78.739 160.386 169.756 165.001 5.6 0.284 10.257-4.087 10.643-9.681l9.589-139.034c0.211-3.083-2.231-5.7-5.321-5.7h-23.727c-8.427 0-16.787-1.363-24.698-4.030zM637.871 554.758c-44.386-12.201-78.714-44.779-91.974-88.141l76.326 18.438c6.577 2.089 13.321 3.599 20.143 4.523l-4.495 65.18zM224 832c-41.238 0-74.667-33.429-74.667-74.667 0-12.299 2.973-23.902 8.24-34.131l-24.762-283.228c-0.040-0.454-0.063-0.905-0.070-1.353l-1.748-49.506c-1.909-54.057 37.936-100.553 91.646-106.944l3.853-0.459c41.312-4.915 81.579 15.262 102.37 51.296l46.85 81.199c10.549 18.283-5.941 40.299-26.453 35.315l-35.872-8.715-54.349 3.533-22.75 2.707 36.102 239.386c38.709-11.981 76.954-24.7 109.922-42.709 31.887-17.419 57.34-39.006 72.89-68.207-27.373-38.244-44.51-84.425-47.3-134.652l-6.65-119.682c-0.681-12.228 9.054-22.517 21.299-22.517h461.856c6.242 0 11.149 5.333 10.63 11.552l-12.591 151.106c-1.382 16.585-15.247 29.342-31.889 29.342h-81.628c-0.533 0-0.983 0.393-1.056 0.919l-21.429 154.283c-2.929 21.094-20.964 36.798-42.261 36.798h-40.676c-38.754 0-75.584-8.636-108.608-24.128-62.167 94.029-170.925 120.523-269.837 141.775-13.515 19.167-35.827 31.686-61.062 31.686zM192 757.333c0 17.673 14.327 32 32 32s32-14.327 32-32c0-17.673-14.327-32-32-32s-32 14.327-32 32zM234.172 683.354c-3.326-0.452-6.722-0.687-10.172-0.687-11.402 0-22.207 2.556-31.873 7.125l-22.077-252.525-1.747-49.47c-1.224-34.652 24.318-64.457 58.748-68.553l3.853-0.459c26.481-3.151 52.292 9.781 65.621 32.881l31.29 54.227-7.593-1.845c-2.364-0.572-4.798-0.785-7.223-0.627l-57.378 3.729-37.404 4.45c-13.453 1.602-22.916 14.014-20.895 27.411l36.85 244.341zM402.767 681.169c-34.839 19.031-74.266 32.463-111.347 44.036 4.143 8.681 6.66 18.285 7.155 28.42 90.758-20.516 171.447-46.031 219.264-116.424-11.878-8.23-23.031-17.444-33.34-27.524-20.629 31.345-49.828 54.063-81.732 71.492zM450.502 438.5c6.281 113.050 99.78 201.5 213.005 201.5h40.676l21.429-154.283c3.002-21.621 21.489-37.717 43.317-37.717h71.812l8.89-106.667h-404.529l5.399 97.167zM501.333 128c17.673 0 32 14.327 32 32s-14.327 32-32 32c-17.673 0-32-14.327-32-32s14.327-32 32-32zM661.333 160c0-17.673-14.327-32-32-32s-32 14.327-32 32c0 17.673 14.327 32 32 32s32-14.327 32-32zM757.333 128c17.673 0 32 14.327 32 32s-14.327 32-32 32c-17.673 0-32-14.327-32-32s14.327-32 32-32zM458.667 256h341.333c53.020 0 96-42.98 96-96s-42.98-96-96-96h-341.333c-53.020 0-96 42.98-96 96s42.98 96 96 96zM800 213.333h-341.333c-29.455 0-53.333-23.878-53.333-53.333s23.878-53.333 53.333-53.333h341.333c29.455 0 53.333 23.878 53.333 53.333s-23.878 53.333-53.333 53.333z" />
<glyph unicode="&#xe908;" glyph-name="mobile_clinic" d="M85.333 682.667c0 35.347 28.654 64 64 64h469.333c35.347 0 64-28.653 64-64v-128h79.317c16.090 0 31.588-6.061 43.411-16.973l112.681-104.015c13.126-12.115 20.591-29.165 20.591-47.027v-173.318h-85.333v42.667h42.667v130.652c0 5.954-2.487 11.637-6.863 15.676l-112.683 104.015c-3.94 3.637-9.107 5.658-14.47 5.658h-79.317v-256h42.667v-42.667h-234.667v42.667h149.333v426.667c0 11.782-9.551 21.333-21.333 21.333h-469.333c-11.782 0-21.333-9.551-21.333-21.333v-426.667h64v-42.667h-106.667v469.333zM298.667 256h64v-42.667h-64v42.667zM234.667 192c-23.564 0-42.667 19.102-42.667 42.667s19.103 42.667 42.667 42.667c23.565 0 42.667-19.102 42.667-42.667s-19.102-42.667-42.667-42.667zM234.667 149.333c47.127 0 85.333 38.206 85.333 85.333s-38.206 85.333-85.333 85.333c-47.128 0-85.333-38.206-85.333-85.333s38.205-85.333 85.333-85.333zM426.667 192c-23.565 0-42.667 19.102-42.667 42.667s19.102 42.667 42.667 42.667c23.565 0 42.667-19.102 42.667-42.667s-19.102-42.667-42.667-42.667zM426.667 149.333c47.127 0 85.333 38.206 85.333 85.333s-38.206 85.333-85.333 85.333c-47.127 0-85.333-38.206-85.333-85.333s38.206-85.333 85.333-85.333zM789.333 192c-23.565 0-42.667 19.102-42.667 42.667s19.102 42.667 42.667 42.667c23.565 0 42.667-19.102 42.667-42.667s-19.102-42.667-42.667-42.667zM789.333 149.333c47.127 0 85.333 38.206 85.333 85.333s-38.206 85.333-85.333 85.333c-47.127 0-85.333-38.206-85.333-85.333s38.206-85.333 85.333-85.333zM917.333 362.667h-810.667v42.667h810.667v-42.667zM362.667 469.333v170.667h42.667v-170.667h-42.667zM469.333 533.333h-170.667v42.667h170.667v-42.667z" />
<glyph unicode="&#xe909;" glyph-name="small_plane" d="M294.537 659.23c0-0.011 0-0.023 0.002-0.034 0.030-0.45 0.115-1.51 0.341-3.095 0.454-3.177 1.461-8.395 3.659-14.993 4.35-13.047 13.487-31.889 33.050-51.452l79.716-79.718-222.967-222.967 24.546-24.546 318.216 122.391 176.339-132.254-132.254 176.339 122.391 318.216-24.546 24.546-222.967-222.967-79.718 79.716c-19.563 19.563-38.404 28.7-51.452 33.050-6.598 2.197-11.817 3.204-14.993 3.659-1.585 0.226-2.645 0.311-3.095 0.341-0.011 0.002-0.023 0.002-0.034 0.002h-6.234v-6.234zM350.965 807.228c24.774 24.774 49.549 0 24.774-24.774l-74.323-74.323c0 0 3.599 0 9.824-0.969 8.495-1.323 21.882-4.45 37.702-11.844 15.612-7.3 33.591-18.754 51.571-36.734l49.549-49.549 192.798 192.797c16.661 16.662 43.678 16.662 60.339 0l24.546-24.546c11.923-11.923 15.706-29.749 9.653-45.487l-113.918-296.186 148.646-198.193 85.969 42.987c7.84 3.919 17.308 2.383 23.503-3.814 7.953-7.951 7.953-20.843 0-28.796l-169.397-169.397c-7.953-7.953-20.845-7.953-28.796 0-6.197 6.195-7.733 15.663-3.814 23.503l42.987 85.969-198.193 148.646-296.186-113.918c-15.738-6.052-33.564-2.27-45.487 9.653l-24.546 24.546c-16.662 16.661-16.662 43.678 0 60.339l192.797 192.798-49.549 49.549c-17.98 17.98-29.434 35.959-36.734 51.571-7.394 15.821-10.522 29.207-11.844 37.702-0.969 6.225-0.969 9.824-0.969 9.824l-74.323-74.323c-24.774-24.774-49.548 0-24.774 24.774l198.193 198.193z" />
<glyph unicode="&#xe90a;" glyph-name="vespa_motorcycle" d="M383.13 255.236c-5.5-35.812-36.446-63.236-73.796-63.236s-68.294 27.424-73.796 63.234c2.167 0.102 4.578 0.196 7.255 0.277 15.697 0.476 36.922 0.48 66.541 0.48 29.621 0 50.846-0.004 66.543-0.478 2.675-0.081 5.086-0.175 7.253-0.277zM217.89 253.495v0c0.006 0.002-0.006-0.002 0 0zM400.757 253.504v0c0.009-0.002-0.006 0.002 0 0zM309.333 149.333c64.802 0 117.333 52.531 117.333 117.333 0 9.472 0 16.141-3.044 20.834-7.238 11.162-31.691 11.157-114.289 11.157-117.333 0-117.333 0-117.333-31.991 0-64.802 52.531-117.333 117.333-117.333zM665.067 618.667h102.933v-256h-42.667v213.333h-25.067l-60.655-313.387-41.89 8.107 67.345 347.947zM820.215 193.331c40.503 7.748 67.055 46.865 59.305 87.369l41.907 8.017c12.177-63.646-29.547-125.114-93.193-137.293-63.648-12.177-125.116 29.547-137.293 93.193l41.905 8.019c7.75-40.503 46.867-67.055 87.369-59.305zM861.248 345.335c-20.855 14.605-46.66 20.324-71.733 15.904-25.075-4.422-47.364-18.622-61.969-39.479-10.451-14.927-16.354-32.39-17.244-50.306l184.356 32.506c-6.963 16.533-18.483 30.925-33.41 41.376zM897.052 304.384c0.013 0.002 0 0 0 0v0zM782.106 403.258c36.218 6.385 73.489-1.877 103.616-22.972 23.187-16.237 40.678-39.051 50.419-65.212 9.705-26.071-9.792-48.851-31.71-52.715l-189.084-33.342c-21.918-3.863-48.030 10.874-47.825 38.692 0.203 27.915 8.836 55.334 25.073 78.524 21.094 30.125 53.293 50.637 89.51 57.024zM448 533.333c11.782 0 21.333-9.551 21.333-21.333v-42.667h-234.667v42.667c0 11.782 9.551 21.333 21.333 21.333h192zM256 576c-35.347 0-64-28.653-64-64v-64c0-11.782 9.551-21.333 21.333-21.333h277.333c11.782 0 21.333 9.551 21.333 21.333v64c0 35.347-28.653 64-64 64h-192zM448 426.667v-127.309c-0.375-0.297-1.135-0.691-2.37-0.691h-313.924c16.23 71.795 84.030 128 168.804 128h147.49zM300.51 469.333c-118.839 0-215.177-91.268-215.177-203.853 0-5.235 4.481-9.481 10.008-9.481h350.288c24.873 0 45.037 19.102 45.037 42.667v153.6c0 9.425-8.066 17.067-18.014 17.067h-172.143zM746.667 704v-85.333h-42.667c-23.565 0-42.667 19.102-42.667 42.667s19.102 42.667 42.667 42.667h42.667zM704 746.667c-47.127 0-85.333-38.206-85.333-85.333s38.206-85.333 85.333-85.333h72.205c7.251 0 13.129 5.877 13.129 13.129v144.41c0 7.251-5.877 13.129-13.129 13.129h-72.205zM540.719 725.333l105.056-18.464-7.386-42.022-105.056 18.464 7.386 42.022zM682.667 256h-256v42.667h256v-42.667zM640 362.667h-192v42.667h192v-42.667z" />
<glyph unicode="&#xe90b;" glyph-name="war" d="M661.333 576c0 11.782 9.551 21.333 21.333 21.333h234.667c11.782 0 21.333-9.551 21.333-21.333s-9.551-21.333-21.333-21.333h-234.667c-11.782 0-21.333 9.551-21.333 21.333zM195.389 490.673c19.613 122.182 121.537 213.327 241.947 213.327 120.412 0 222.338-91.147 241.948-213.333-107.46-0.002-171.251 0.002-231.458 0.004-68.849 0.004-133.015 0.009-252.436 0.002zM682.566 490.673v0zM192.116 490.673v0zM152.236 490.556c-3.211-23.345 16.358-42.551 39.923-42.549 121.5 0.006 186.191 0.002 255.651-0.002 60.804-0.002 125.263-0.006 234.69-0.002 23.563 0 43.145 19.204 39.934 42.549-19.915 144.794-139.97 256.115-285.099 256.115-145.126 0-265.182-111.319-285.099-256.111zM870.673 362.667c9.713 0 17.039-4.361 21.231-9.839 4.096-5.353 5.146-11.441 3.002-17.5l-29.809-84.239c-12.032-34.003-46.942-59.089-88.685-59.089h-528.823c-41.743 0-76.653 25.086-88.685 59.089l-29.808 84.239c-2.144 6.059-1.094 12.147 3.001 17.5 4.192 5.478 11.518 9.839 21.231 9.839h717.347zM153.326 405.333c-46.373 0-79.119-42.797-64.454-84.239l29.808-84.239c18.495-52.267 70.421-87.522 128.908-87.522h528.823c58.487 0 110.413 35.255 128.909 87.522l29.807 84.239c14.665 41.442-18.080 84.239-64.454 84.239h-717.347zM320 256c-11.782 0-21.333 9.551-21.333 21.333s9.551 21.333 21.333 21.333c11.782 0 21.333-9.551 21.333-21.333s-9.551-21.333-21.333-21.333zM320 213.333c35.347 0 64 28.653 64 64 0 35.345-28.653 64-64 64s-64-28.655-64-64c0-35.347 28.653-64 64-64zM512 256c-11.782 0-21.333 9.551-21.333 21.333s9.551 21.333 21.333 21.333c11.782 0 21.333-9.551 21.333-21.333s-9.551-21.333-21.333-21.333zM512 213.333c35.347 0 64 28.653 64 64 0 35.345-28.653 64-64 64s-64-28.655-64-64c0-35.347 28.653-64 64-64zM704 256c-11.782 0-21.333 9.551-21.333 21.333s9.551 21.333 21.333 21.333c11.782 0 21.333-9.551 21.333-21.333s-9.551-21.333-21.333-21.333zM704 213.333c35.347 0 64 28.653 64 64 0 35.345-28.653 64-64 64s-64-28.655-64-64c0-35.347 28.653-64 64-64z" />
<glyph unicode="&#xe90c;" glyph-name="uniE90C" d="M448 707.878c0 35.072 30.613 60.122 64 60.122s64-25.050 64-60.122v-349.090c0-35.072-30.613-60.122-64-60.122s-64 25.050-64 60.122v349.090zM512 725.333c-13.741 0-21.333-9.683-21.333-17.455v-349.090c0-7.772 7.593-17.455 21.333-17.455s21.333 9.683 21.333 17.455v349.090c0 7.772-7.593 17.455-21.333 17.455zM512 213.333c-11.782 0-21.333-9.551-21.333-21.333s9.551-21.333 21.333-21.333c11.782 0 21.333 9.551 21.333 21.333s-9.551 21.333-21.333 21.333zM448 192c0 35.347 28.653 64 64 64s64-28.653 64-64c0-35.347-28.653-64-64-64s-64 28.653-64 64z" />
<glyph unicode="&#xe90d;" glyph-name="0" d="M277.333 576c0 106.039 85.961 192 192 192h85.333c49.137 0 94.093-18.541 128.015-48.905 39.174-35.061 63.985-86.221 63.985-143.095v-256c0-106.039-85.961-192-192-192h-85.333c-56.875 0-108.034 24.811-143.095 63.985-30.364 33.922-48.905 78.878-48.905 128.015v256zM469.333 725.333c-82.475 0-149.333-66.859-149.333-149.333v-256c0-38.231 14.394-73.154 38.031-99.561 27.315-30.522 67.076-49.773 111.302-49.773h85.333c82.475 0 149.333 66.859 149.333 149.333v256c0 44.226-19.251 83.987-49.773 111.302-26.406 23.637-61.329 38.031-99.561 38.031h-85.333zM469.333 640c-35.347 0-64-28.653-64-64v-166.769l140.591 230.769h-76.591zM362.667 576c0 58.91 47.757 106.667 106.667 106.667h85.333c11.599 0 22.799-1.85 33.308-5.297 6.189-2.033 11.11-6.78 13.363-12.89 2.253-6.112 1.591-12.917-1.796-18.481l-197.323-323.889c-4.975-8.166-14.775-12.023-23.983-9.44-9.205 2.583-15.569 10.978-15.569 20.54v242.79zM643.479 608.917c8.826-1.824 15.554-8.996 16.809-17.922 0.691-4.911 1.045-9.918 1.045-14.995v-256c0-58.91-47.757-106.667-106.667-106.667h-85.333c-17.794 0-34.628 4.356-49.449 12.124-5.222 2.737-9.079 7.514-10.654 13.195-1.577 5.683-0.73 11.763 2.338 16.8l209.374 343.671c4.689 7.697 13.711 11.618 22.537 9.794zM462.108 256.399c2.368-0.262 4.779-0.399 7.226-0.399h85.333c35.347 0 64 28.653 64 64v193.378l-156.559-256.979z" />
<glyph unicode="&#xe90e;" glyph-name="1" d="M530.746 749.253c18.304 18.304 45.83 23.779 69.747 13.873 23.915-9.906 39.507-33.243 39.507-59.129v-512c0-35.345-28.653-64-64-64s-64 28.655-64 64v357.628c-25.129-22.513-63.774-21.698-87.921 2.451-24.994 24.994-24.994 65.517 0 90.509l106.667 106.667zM584.164 723.708c-7.972 3.302-17.148 1.476-23.249-4.625l-106.667-106.667c-8.331-8.331-8.331-21.839 0-30.17s21.839-8.331 30.17 0l33.83 33.83c6.101 6.101 15.277 7.925 23.249 4.625 7.972-3.302 13.169-11.083 13.169-19.71v-408.994c0-11.782 9.551-21.333 21.333-21.333s21.333 9.551 21.333 21.333v512c0 8.629-5.197 16.407-13.169 19.71z" />
<glyph unicode="&#xe90f;" glyph-name="2" d="M746.667 576c0 106.039-85.961 192-192 192h-85.333c-83.71 0-154.735-53.532-181.058-128.006-11.778-33.325 5.687-69.89 39.014-81.668 33.325-11.78 69.89 5.687 81.668 39.014 8.809 24.922 32.587 42.66 60.375 42.66h85.333c35.347 0 64-28.653 64-64 0-18.957-8.16-35.915-21.348-47.718-0.608-0.544-1.205-1.099-1.79-1.664l-298.667-288.593c-18.758-18.127-24.64-45.824-14.865-70.007 9.775-24.186 33.25-40.017 59.337-40.017h341.333c35.347 0 64 28.653 64 64s-28.653 64-64 64h-182.997l184.013 177.805c38.596 35.034 62.985 85.807 62.985 142.195zM554.667 725.333c82.475 0 149.333-66.859 149.333-149.333 0-43.951-19.012-83.492-49.205-110.793-0.173-0.158-0.346-0.318-0.514-0.482l-222.212-214.718c-6.255-6.042-8.213-15.275-4.956-23.334 3.258-8.062 11.083-13.34 19.778-13.34h235.776c11.782 0 21.333-9.551 21.333-21.333s-9.551-21.333-21.333-21.333h-341.333c-8.695 0-16.521 5.278-19.778 13.34-3.26 8.060-1.299 17.293 4.954 23.334l298.667 288.593c0.196 0.19 0.395 0.373 0.597 0.555v0c21.862 19.569 35.561 47.932 35.561 79.511 0 58.91-47.757 106.667-106.667 106.667h-85.333c-46.387 0-85.941-29.63-100.602-71.108-3.927-11.11-16.115-16.932-27.223-13.005-11.11 3.925-16.932 16.113-13.005 27.221 20.493 57.984 75.787 99.558 140.83 99.558h85.333z" />
<glyph unicode="&#xe910;" glyph-name="3" d="M746.667 576c0 107.364-88.553 192-194.79 192h-87.194c-84.051 0-156.478-52.651-183.543-127.595-12.006-33.244 5.21-69.926 38.455-81.933 33.244-12.006 69.926 5.21 81.933 38.455 8.843 24.48 33.306 43.072 63.155 43.072h87.194c38.131 0 66.79-29.884 66.79-64s-28.659-64-66.79-64h-87.194c-35.347 0-64-28.653-64-64s28.653-64 64-64h87.194c38.131 0 66.79-29.884 66.79-64s-28.659-64-66.79-64h-87.194c-29.85 0-54.313 18.592-63.155 43.072-12.006 33.246-48.689 50.462-81.933 38.455-33.246-12.006-50.462-48.689-38.455-81.933 27.066-74.944 99.492-127.595 183.543-127.595h87.194c106.238 0 194.79 84.636 194.79 192 0 49.466-18.871 94.212-49.587 128 30.716 33.788 49.587 78.534 49.587 128zM551.876 725.333c83.612 0 152.124-66.46 152.124-149.333 0-44.753-19.876-84.574-51.375-111.881-4.674-4.053-7.358-9.933-7.358-16.119s2.684-12.066 7.358-16.119c31.499-27.307 51.375-67.127 51.375-111.881 0-82.874-68.512-149.333-152.124-149.333h-87.194c-65.98 0-122.421 41.293-143.413 99.42-4.002 11.083 1.737 23.309 12.817 27.311 11.083 4.002 23.309-1.737 27.311-12.817 14.921-41.308 55.375-71.247 103.285-71.247h87.194c60.954 0 109.457 48.252 109.457 106.667s-48.503 106.667-109.457 106.667h-87.194c-11.782 0-21.333 9.551-21.333 21.333s9.551 21.333 21.333 21.333h87.194c60.954 0 109.457 48.252 109.457 106.667s-48.503 106.667-109.457 106.667h-87.194c-47.91 0-88.365-29.939-103.285-71.247-4.002-11.081-16.228-16.819-27.311-12.817-11.081 4.002-16.819 16.228-12.817 27.311 20.992 58.127 77.434 99.42 143.413 99.42h87.194z" />
<glyph unicode="&#xe911;" glyph-name="4" d="M544.083 739.497c15.644 23.465 44.804 33.925 71.797 25.752 26.991-8.173 45.453-33.050 45.453-61.253v-320.002h21.333c35.347 0 64-28.653 64-64 0-35.345-28.653-64-64-64h-21.333v-63.998c0-35.347-28.653-64-64-64-35.345 0-64 28.653-64 64v63.998h-192c-23.603 0-45.291 12.992-56.427 33.803v0c-11.138 20.809-9.918 46.061 3.177 65.698l256 384.002zM603.516 724.414c-8.998 2.724-18.718-0.764-23.932-8.585l-256-384.002c-4.365-6.545-4.772-14.963-1.060-21.899 3.712-6.938 10.942-11.268 18.81-11.268h213.333c11.782 0 21.333-9.551 21.333-21.333v-85.331c0-11.782 9.551-21.333 21.333-21.333s21.333 9.551 21.333 21.333v85.331c0 11.782 9.551 21.333 21.333 21.333h42.667c11.782 0 21.333 9.553 21.333 21.333 0 11.782-9.551 21.333-21.333 21.333h-42.667c-11.782 0-21.333 9.553-21.333 21.333v341.335c0 9.399-6.155 17.694-15.151 20.418zM560.849 583.494c8.996-2.724 15.151-11.017 15.151-20.418v-200.416c0-11.78-9.551-21.333-21.333-21.333h-133.611c-7.868 0-15.095 4.331-18.807 11.268-3.714 6.935-3.307 15.354 1.058 21.899l133.611 200.416c5.214 7.823 14.933 11.309 23.932 8.585zM460.919 383.994h72.414v108.623l-72.414-108.623z" />
<glyph unicode="&#xe912;" glyph-name="5" d="M746.667 704c0 35.347-28.653 64-64 64h-298.667c-30.509 0-56.774-21.534-62.758-51.45l-42.667-213.333c-5.075-25.382 5.638-51.324 27.145-65.728 21.508-14.402 49.574-14.432 71.113-0.075 10.839 7.226 62.49 31.919 135.168 31.919 58.91 0 106.667-47.757 106.667-106.667s-47.757-106.667-106.667-106.667h-47.319c-29.847 0-54.313 18.592-63.153 43.072-12.006 33.246-48.689 50.462-81.935 38.455-33.244-12.006-50.462-48.689-38.455-81.933 27.068-74.944 99.492-127.595 183.543-127.595h47.319c129.602 0 234.667 105.065 234.667 234.667s-105.065 234.667-234.667 234.667c-31.057 0-59.874-3.232-85.724-8.288l10.191 50.955h246.199c35.347 0 64 28.653 64 64zM682.667 725.333c11.782 0 21.333-9.551 21.333-21.333s-9.551-21.333-21.333-21.333h-263.689c-10.17 0-18.925-7.179-20.919-17.15l-20.137-100.681c-1.455-7.27 0.971-14.775 6.406-19.821 5.434-5.043 13.099-6.903 20.241-4.913 30.106 8.39 66.611 14.564 107.43 14.564 106.039 0 192-85.961 192-192s-85.961-192-192-192h-47.319c-65.98 0-122.419 41.293-143.413 99.42-4.002 11.083 1.737 23.309 12.819 27.311s23.309-1.737 27.311-12.817c14.918-41.308 55.375-71.247 103.283-71.247h47.319c82.475 0 149.333 66.859 149.333 149.333s-66.859 149.333-149.333 149.333c-81.114 0-140.998-27.194-158.833-39.085-7.181-4.785-16.535-4.774-23.706 0.026-7.168 4.802-10.739 13.449-9.047 21.909l42.667 213.333c1.995 9.971 10.75 17.15 20.919 17.15h298.667z" />
<glyph unicode="&#xe913;" glyph-name="6" d="M735.65 640.096c-26.507 74.594-97.877 127.904-181.668 127.904h-83.964c-106.086 0-192.685-85.632-192.685-192v-256c0-106.368 86.598-192 192.685-192h83.964c106.086 0 192.685 85.632 192.685 192s-86.598 192-192.685 192h-83.964c-22.656 0-44.439-3.91-64.685-11.1v75.1c0 35.040 28.655 64 64.685 64h83.964c28.297 0 52.241-17.952 61.056-42.763 11.836-33.306 48.429-50.711 81.737-38.876 33.306 11.834 50.711 48.429 38.876 81.734zM553.982 725.333c65.271 0 120.847-41.504 141.463-99.524 3.947-11.102-1.856-23.3-12.958-27.245s-23.3 1.858-27.245 12.96c-14.724 41.436-54.5 71.142-101.261 71.142h-83.964c-59.411 0-107.351-47.881-107.351-106.667v-108.371c0-7.627 4.073-14.673 10.679-18.483 6.609-3.808 14.746-3.799 21.346 0.021 22.14 12.823 47.859 20.166 75.326 20.166h83.964c82.754 0 150.018-66.761 150.018-149.333s-67.264-149.333-150.018-149.333h-83.964c-82.752 0-150.018 66.761-150.018 149.333v256c0 82.573 67.266 149.333 150.018 149.333h83.964zM553.982 384c36.030 0 64.685-28.96 64.685-64s-28.655-64-64.685-64h-83.964c-36.030 0-64.685 28.96-64.685 64s28.655 64 64.685 64h83.964zM661.333 320c0 58.786-47.938 106.667-107.351 106.667h-83.964c-59.411 0-107.351-47.881-107.351-106.667s47.94-106.667 107.351-106.667h83.964c59.413 0 107.351 47.881 107.351 106.667z" />
<glyph unicode="&#xe914;" glyph-name="7" d="M277.333 704c0 35.347 28.653 64 64 64h341.333c25.024 0 47.75-14.584 58.178-37.331s6.641-49.485-9.692-68.442c-36.431-42.287-91.106-119.486-139.906-209.101-49.131-90.223-89.18-187.373-101.246-270.338-5.088-34.978-37.568-59.209-72.546-54.123-34.978 5.088-59.209 37.568-54.123 72.546 15.238 104.766 63.369 217.393 115.501 313.129 24.651 45.269 50.857 87.955 76.16 125.66h-213.66c-35.347 0-64 28.653-64 64zM341.333 725.333c-11.782 0-21.333-9.551-21.333-21.333s9.551-21.333 21.333-21.333h254.342c7.989 0 15.307-4.463 18.965-11.563 3.659-7.102 3.042-15.65-1.594-22.155-31.187-43.746-65.271-97.22-96.742-155.014-51.132-93.894-96.567-201.363-110.75-298.865-1.696-11.659 6.381-22.485 18.042-24.181 11.659-1.696 22.485 6.381 24.181 18.042 13.124 90.234 55.868 192.544 105.997 284.602 50.022 91.857 106.362 171.633 145.054 216.544 5.444 6.319 6.707 15.232 3.23 22.814-3.475 7.582-11.051 12.444-19.392 12.444h-341.333z" />
<glyph unicode="&#xe915;" glyph-name="8" d="M746.667 576c0 106.368-86.598 192-192.685 192h-83.964c-106.086 0-192.685-85.632-192.685-192 0-49.248 18.598-94.089 49.062-128-30.464-33.911-49.062-78.752-49.062-128 0-106.368 86.598-192 192.685-192h83.964c106.086 0 192.685 85.632 192.685 192 0 49.248-18.596 94.089-49.062 128 30.466 33.911 49.062 78.752 49.062 128zM553.982 725.333c82.754 0 150.018-66.761 150.018-149.333 0-44.638-19.612-84.602-50.761-111.974-4.61-4.051-7.253-9.89-7.253-16.026s2.643-11.974 7.253-16.026c31.149-27.373 50.761-67.337 50.761-111.974 0-82.573-67.264-149.333-150.018-149.333h-83.964c-82.752 0-150.018 66.761-150.018 149.333 0 44.638 19.612 84.602 50.763 111.974 4.61 4.051 7.251 9.89 7.251 16.026s-2.641 11.974-7.251 16.026c-31.151 27.373-50.763 67.337-50.763 111.974 0 82.573 67.266 149.333 150.018 149.333h83.964zM553.982 640c36.030 0 64.685-28.96 64.685-64s-28.655-64-64.685-64h-83.964c-36.030 0-64.685 28.96-64.685 64s28.655 64 64.685 64h83.964zM661.333 576c0 58.786-47.938 106.667-107.351 106.667h-83.964c-59.411 0-107.351-47.881-107.351-106.667s47.94-106.667 107.351-106.667h83.964c59.413 0 107.351 47.881 107.351 106.667zM553.982 384c36.030 0 64.685-28.96 64.685-64s-28.655-64-64.685-64h-83.964c-36.030 0-64.685 28.96-64.685 64s28.655 64 64.685 64h83.964zM661.333 320c0 58.786-47.938 106.667-107.351 106.667h-83.964c-59.411 0-107.351-47.881-107.351-106.667s47.94-106.667 107.351-106.667h83.964c59.413 0 107.351 47.881 107.351 106.667z" />
<glyph unicode="&#xe916;" glyph-name="9" d="M288.35 255.904c26.507-74.594 97.877-127.904 181.668-127.904h83.964c106.086 0 192.685 85.632 192.685 192v256c0 106.368-86.598 192-192.685 192h-83.964c-106.086 0-192.685-85.632-192.685-192s86.598-192 192.685-192h83.964c22.656 0 44.442 3.91 64.685 11.1v-75.1c0-35.040-28.655-64-64.685-64h-83.964c-28.297 0-52.241 17.952-61.056 42.763-11.836 33.306-48.429 50.711-81.737 38.876-33.306-11.834-50.711-48.429-38.876-81.734zM470.018 170.667c-65.271 0-120.847 41.504-141.463 99.524-3.947 11.102 1.856 23.3 12.958 27.245s23.3-1.858 27.245-12.96c14.724-41.436 54.5-71.142 101.261-71.142h83.964c59.411 0 107.351 47.881 107.351 106.667v108.371c0 7.627-4.073 14.673-10.679 18.483-6.609 3.808-14.746 3.799-21.346-0.021-22.14-12.823-47.859-20.166-75.326-20.166h-83.964c-82.754 0-150.018 66.761-150.018 149.333s67.264 149.333 150.018 149.333h83.964c82.752 0 150.018-66.761 150.018-149.333v-256c0-82.573-67.266-149.333-150.018-149.333h-83.964zM470.018 512c-36.030 0-64.685 28.96-64.685 64s28.655 64 64.685 64h83.964c36.030 0 64.685-28.96 64.685-64s-28.655-64-64.685-64h-83.964zM362.667 576c0-58.786 47.94-106.667 107.351-106.667h83.964c59.411 0 107.351 47.881 107.351 106.667s-47.94 106.667-107.351 106.667h-83.964c-59.411 0-107.351-47.881-107.351-106.667z" />
<glyph unicode="&#xe917;" glyph-name="A" d="M452.919 728.614c9.937 23.85 33.239 39.386 59.076 39.386s49.139-15.535 59.076-39.386l159.55-382.914c0.318-0.727 0.623-1.461 0.915-2.202l52.868-126.884c13.596-32.627-1.833-70.097-34.46-83.691-32.627-13.596-70.099 1.833-83.693 34.462l-36.924 88.614h-234.667l-36.924-88.614c-13.594-32.629-51.063-48.058-83.691-34.462-32.627 13.594-48.058 51.063-34.462 83.691l52.868 126.884c0.292 0.74 0.597 1.474 0.915 2.199l159.55 382.916zM511.996 725.333c-8.612 0-16.38-5.178-19.693-13.129l-159.825-383.567c-0.13-0.294-0.254-0.591-0.371-0.892l-0.183-0.454-52.954-127.087c-4.531-10.876 0.612-23.366 11.488-27.898s23.366 0.612 27.898 11.488l42.394 101.743c3.311 7.951 11.078 13.129 19.691 13.129h263.113c8.612 0 16.38-5.178 19.693-13.129l42.391-101.743c4.531-10.876 17.022-16.019 27.898-11.488s16.019 17.022 11.488 27.898l-53.135 127.541c-0.066 0.166-0.132 0.331-0.203 0.495-0.055 0.132-0.111 0.265-0.171 0.397l-0.192 0.448-159.633 383.119c-3.313 7.951-11.081 13.129-19.693 13.129zM511.996 614.4c8.612 0 16.38-5.178 19.693-13.129l96-230.4c2.743-6.583 2.014-14.103-1.941-20.038-3.957-5.935-10.618-9.5-17.751-9.5h-192c-7.132 0-13.794 3.565-17.749 9.5-3.957 5.935-4.687 13.455-1.943 20.038l96 230.4c3.313 7.951 11.081 13.129 19.693 13.129zM447.996 384h128l-64 153.6-64-153.6z" />
<glyph unicode="&#xe918;" glyph-name="B" d="M277.333 704c0 35.347 28.653 64 64 64h213.333c106.039 0 192-85.961 192-192 0-49.175-18.507-94.048-48.89-128 30.383-33.952 48.89-78.825 48.89-128 0-106.039-85.961-192-192-192h-213.333c-16.975 0-33.252 6.743-45.254 18.746s-18.746 28.279-18.746 45.254v512zM341.333 725.333c-11.782 0-21.333-9.551-21.333-21.333v-512c0-5.658 2.249-11.085 6.249-15.085s9.427-6.249 15.085-6.249h213.333c82.475 0 149.333 66.859 149.333 149.333 0 44.599-19.524 84.61-50.562 112.006-4.589 4.049-7.217 9.873-7.217 15.994s2.628 11.945 7.217 15.994c31.038 27.396 50.562 67.407 50.562 112.006 0 82.475-66.859 149.333-149.333 149.333h-213.333zM362.667 661.333c0 11.782 9.551 21.333 21.333 21.333h170.667c58.91 0 106.667-47.757 106.667-106.667s-47.757-106.667-106.667-106.667h-170.667c-11.782 0-21.333 9.551-21.333 21.333v170.667zM405.333 640v-128h149.333c35.347 0 64 28.653 64 64s-28.653 64-64 64h-149.333zM362.667 405.333c0 11.782 9.551 21.333 21.333 21.333h170.667c58.91 0 106.667-47.757 106.667-106.667s-47.757-106.667-106.667-106.667h-170.667c-11.782 0-21.333 9.551-21.333 21.333v170.667zM405.333 384v-128h149.333c35.347 0 64 28.653 64 64s-28.653 64-64 64h-149.333z" />
<glyph unicode="&#xe919;" glyph-name="C" d="M389.54 743.642c58.473 24.22 122.814 30.557 184.89 18.209 62.074-12.347 119.091-42.824 163.844-87.577 24.994-24.994 24.994-65.517 0-90.509-24.994-24.994-65.517-24.994-90.509 0-26.852 26.85-61.065 45.137-98.308 52.546-37.244 7.407-75.849 3.605-110.931-10.927-35.085-14.532-65.071-39.14-86.167-70.716-21.099-31.573-32.358-68.695-32.358-106.669s11.26-75.095 32.358-106.669c21.097-31.575 51.083-56.183 86.167-70.716 35.083-14.532 73.687-18.334 110.931-10.927 37.244 7.409 71.456 25.696 98.308 52.546 24.992 24.994 65.515 24.994 90.509 0 24.994-24.992 24.994-65.515 0-90.509-44.753-44.753-101.771-75.23-163.844-87.578-62.076-12.348-126.417-6.010-184.887 18.21-58.473 24.22-108.45 65.235-143.612 117.858-35.163 52.625-53.931 114.494-53.931 177.783s18.768 125.158 53.931 177.781c35.162 52.625 85.139 93.641 143.61 117.86zM566.106 720.004c-53.798 10.701-109.559 5.21-160.237-15.782-50.675-20.99-93.988-56.538-124.463-102.144s-46.739-99.226-46.739-154.078c0-54.852 16.265-108.471 46.739-154.078 30.475-45.609 73.788-81.154 124.463-102.144 50.677-20.992 106.438-26.483 160.237-15.782 53.796 10.701 103.213 37.114 141.999 75.9 8.331 8.331 8.331 21.839 0 30.17s-21.839 8.331-30.17 0c-32.819-32.819-74.633-55.168-120.154-64.222-45.521-9.056-92.704-4.407-135.584 13.353-42.88 17.762-79.531 47.84-105.316 86.43-25.786 38.592-39.548 83.962-39.548 130.374s13.762 91.782 39.548 130.374c25.786 38.59 62.436 68.668 105.316 86.43 42.88 17.76 90.063 22.409 135.584 13.353 45.521-9.054 87.334-31.405 120.154-64.222 8.331-8.333 21.839-8.333 30.17 0 8.331 8.331 8.331 21.839 0 30.17-38.786 38.786-88.203 65.199-141.999 75.9z" />
<glyph unicode="&#xe91a;" glyph-name="D" d="M234.667 704c0 35.347 28.653 64 64 64h170.667c176.732 0 320-143.268 320-320s-143.268-320-320-320h-170.667c-35.347 0-64 28.653-64 64v512zM298.667 725.333c-11.782 0-21.333-9.551-21.333-21.333v-512c0-11.782 9.551-21.333 21.333-21.333h170.667c153.167 0 277.333 124.166 277.333 277.333s-124.166 277.333-277.333 277.333h-170.667zM320 661.333c0 11.782 9.551 21.333 21.333 21.333h128c129.602 0 234.667-105.065 234.667-234.667s-105.065-234.667-234.667-234.667h-128c-11.782 0-21.333 9.551-21.333 21.333v426.667zM362.667 640v-384h106.667c106.039 0 192 85.961 192 192s-85.961 192-192 192h-106.667z" />
<glyph unicode="&#xe91b;" glyph-name="dollar" d="M512 810.667c-11.782 0-21.333-9.551-21.333-21.333v-64h-21.333c-82.475 0-149.333-66.859-149.333-149.333s66.859-149.333 149.333-149.333h21.333v-213.333h-21.333c-46.387 0-85.941 29.63-100.602 71.108-3.927 11.11-16.115 16.932-27.223 13.005-11.11-3.925-16.932-16.113-13.005-27.221 20.493-57.984 75.787-99.558 140.83-99.558h21.333v-64c0-11.782 9.551-21.333 21.333-21.333s21.333 9.551 21.333 21.333v64h21.333c82.475 0 149.333 66.859 149.333 149.333s-66.859 149.333-149.333 149.333h-21.333v213.333h21.333c46.387 0 85.941-29.63 100.602-71.108 3.927-11.11 16.115-16.932 27.223-13.005 11.11 3.925 16.932 16.113 13.005 27.221-20.493 57.984-75.787 99.558-140.83 99.558h-21.333v64c0 11.782-9.551 21.333-21.333 21.333zM448 789.333c0 35.346 28.653 64 64 64s64-28.654 64-64v-22.505c74.283-8.208 135.669-58.775 159.725-126.835 11.778-33.325-5.687-69.89-39.014-81.668-33.325-11.78-69.89 5.687-81.668 39.014-6.441 18.219-20.881 32.602-39.042 39.019v-125.53c96-10.613 170.667-92 170.667-190.829s-74.667-180.215-170.667-190.829v-22.505c0-35.347-28.653-64-64-64s-64 28.653-64 64v22.505c-74.283 8.209-135.669 58.775-159.725 126.835-11.778 33.325 5.687 69.89 39.014 81.668 33.325 11.78 69.89-5.687 81.668-39.014 6.441-18.219 20.881-32.602 39.042-39.019v125.53c-96 10.613-170.667 92-170.667 190.829s74.667 180.216 170.667 190.828v22.505zM362.667 576c0 58.91 47.757 106.667 106.667 106.667h21.333v-213.333h-21.333c-58.91 0-106.667 47.757-106.667 106.667zM448 636.358c-24.858-8.785-42.667-32.493-42.667-60.358s17.809-51.573 42.667-60.358v120.717zM533.333 426.667h21.333c58.91 0 106.667-47.757 106.667-106.667s-47.757-106.667-106.667-106.667h-21.333v213.333zM576 380.358v-120.717c24.858 8.785 42.667 32.493 42.667 60.358s-17.809 51.573-42.667 60.358z" />
<glyph unicode="&#xe91c;" glyph-name="E" d="M320 704c0 35.347 28.653 64 64 64h256c35.347 0 64-28.653 64-64s-28.653-64-64-64h-192v-128h192c35.347 0 64-28.653 64-64s-28.653-64-64-64h-192v-128h192c35.347 0 64-28.653 64-64s-28.653-64-64-64h-256c-35.347 0-64 28.653-64 64v512zM384 725.333c-11.782 0-21.333-9.551-21.333-21.333v-512c0-11.782 9.551-21.333 21.333-21.333h256c11.782 0 21.333 9.551 21.333 21.333s-9.551 21.333-21.333 21.333h-213.333c-11.782 0-21.333 9.551-21.333 21.333v170.667c0 11.782 9.551 21.333 21.333 21.333h213.333c11.782 0 21.333 9.551 21.333 21.333s-9.551 21.333-21.333 21.333h-213.333c-11.782 0-21.333 9.551-21.333 21.333v170.667c0 11.782 9.551 21.333 21.333 21.333h213.333c11.782 0 21.333 9.551 21.333 21.333s-9.551 21.333-21.333 21.333h-256z" />
<glyph unicode="&#xe91d;" glyph-name="F" d="M320 704c0 35.347 28.653 64 64 64h256c35.347 0 64-28.653 64-64s-28.653-64-64-64h-192v-128h192c35.347 0 64-28.653 64-64s-28.653-64-64-64h-192v-192c0-35.347-28.653-64-64-64s-64 28.653-64 64v512zM384 725.333c-11.782 0-21.333-9.551-21.333-21.333v-512c0-11.782 9.551-21.333 21.333-21.333s21.333 9.551 21.333 21.333v213.333c0 11.782 9.551 21.333 21.333 21.333h213.333c11.782 0 21.333 9.551 21.333 21.333s-9.551 21.333-21.333 21.333h-213.333c-11.782 0-21.333 9.551-21.333 21.333v170.667c0 11.782 9.551 21.333 21.333 21.333h213.333c11.782 0 21.333 9.551 21.333 21.333s-9.551 21.333-21.333 21.333h-256z" />
<glyph unicode="&#xe91e;" glyph-name="G" d="M389.54 743.642c58.473 24.22 122.814 30.557 184.89 18.209 56.237-11.187 108.326-37.254 150.903-75.338 26.347-23.565 28.599-64.023 5.035-90.368-23.563-26.347-64.023-28.602-90.368-5.037-25.547 22.85-56.8 38.49-90.543 45.203-37.244 7.407-75.849 3.605-110.931-10.927-35.085-14.532-65.071-39.14-86.167-70.716-21.099-31.573-32.358-68.695-32.358-106.669s11.26-75.095 32.358-106.669c21.097-31.575 51.083-56.183 86.167-70.716 35.083-14.532 73.687-18.334 110.931-10.927 24.849 4.943 48.346 14.729 69.21 28.668v95.644h-106.667c-35.347 0-64 28.653-64 64 0 35.345 28.653 64 64 64h170.667c35.347 0 64-28.655 64-64v-190.812c0-18.212-7.759-35.561-21.333-47.701-42.577-38.084-94.667-64.151-150.903-75.339-62.076-12.348-126.417-6.010-184.89 18.21-58.47 24.22-108.448 65.235-143.61 117.858-35.163 52.625-53.931 114.494-53.931 177.783s18.768 125.158 53.931 177.781c35.162 52.625 85.139 93.641 143.61 117.86zM566.106 720.004c-53.798 10.701-109.559 5.21-160.237-15.782-50.675-20.99-93.988-56.538-124.463-102.144s-46.739-99.226-46.739-154.078c0-54.852 16.265-108.471 46.739-154.078 30.475-45.609 73.788-81.154 124.463-102.144 50.677-20.992 106.438-26.483 160.237-15.782 48.74 9.694 93.884 32.286 130.784 65.293 4.525 4.047 7.11 9.83 7.11 15.9v190.812c0 11.782-9.551 21.333-21.333 21.333h-170.667c-11.782 0-21.333-9.551-21.333-21.333s9.551-21.333 21.333-21.333h128c11.782 0 21.333-9.551 21.333-21.333v-128c0-6.716-3.162-13.039-8.533-17.067-27.987-20.99-60.433-35.546-95.019-42.423-45.521-9.056-92.704-4.407-135.584 13.353-42.88 17.762-79.531 47.84-105.316 86.43-25.786 38.592-39.548 83.962-39.548 130.374s13.762 91.782 39.548 130.374c25.786 38.59 62.436 68.668 105.316 86.43 42.88 17.76 90.063 22.409 135.584 13.353 41.242-8.203 79.439-27.319 110.662-55.247 8.783-7.855 22.27-7.102 30.123 1.679 7.855 8.781 7.104 22.268-1.677 30.123-36.9 33.005-82.044 55.597-130.784 65.293z" />
<glyph unicode="&#xe91f;" glyph-name="ghana" d="M512 810.667c-11.782 0-21.333-9.551-21.333-21.333v-63.573l-18.287-2.639c-22.724-3.281-45.073-9.387-66.511-18.266-50.675-20.992-93.988-56.538-124.463-102.146-30.475-45.606-46.739-99.226-46.739-154.078 0-54.85 16.265-108.471 46.739-154.078s73.788-81.154 124.463-102.144c21.438-8.881 43.787-14.987 66.511-18.266l18.287-2.641v-64.836c0-11.782 9.551-21.333 21.333-21.333s21.333 9.551 21.333 21.333v64.836l18.285 2.641c4.843 0.698 9.673 1.525 14.487 2.483 53.796 10.701 103.213 37.116 141.999 75.9 8.331 8.333 8.331 21.839 0 30.17-8.331 8.333-21.839 8.333-30.17 0-32.542-32.54-73.929-54.79-119.002-63.989l-25.6-5.227v470.302l25.6-5.225c45.073-9.201 86.46-31.45 119.002-63.991 8.331-8.331 21.839-8.331 30.17 0s8.331 21.839 0 30.17c-38.786 38.786-88.203 65.199-141.999 75.9-4.815 0.958-9.645 1.786-14.487 2.485l-18.285 2.639v63.573c0 11.782-9.551 21.333-21.333 21.333zM448 789.333c0 35.346 28.653 64 64 64 35.345 0 64-28.654 64-64v-27.167c61.466-12.546 117.899-42.886 162.274-87.261 24.994-24.994 24.994-65.515 0-90.509s-65.517-24.994-90.509 0c-20.331 20.329-44.877 35.748-71.765 45.254v-362.039c26.889 9.508 51.435 24.926 71.765 45.257 24.992 24.992 65.515 24.992 90.509 0 24.994-24.994 24.994-65.517 0-90.511-44.375-44.375-100.809-74.714-162.274-87.26v-28.431c0-35.347-28.653-64-64-64s-64 28.653-64 64v28.431c-19.919 4.066-39.497 10.039-58.46 17.892-58.47 24.22-108.448 65.235-143.61 117.86-35.163 52.623-53.931 114.492-53.931 177.781s18.768 125.158 53.931 177.783c35.162 52.623 85.139 93.638 143.61 117.858 18.963 7.854 38.541 13.828 58.46 17.894v27.167zM490.667 683.782v-470.302l-25.6 5.227c-14.607 2.98-28.964 7.362-42.869 13.12-42.88 17.762-79.531 47.84-105.316 86.43-25.786 38.592-39.548 83.962-39.548 130.374s13.762 91.785 39.548 130.374c25.786 38.59 62.436 68.668 105.316 86.43 13.905 5.76 28.262 10.14 42.869 13.122l25.6 5.225zM448 629.651c-3.185-1.126-6.345-2.338-9.476-3.635-35.083-14.532-65.069-39.14-86.165-70.714-21.099-31.575-32.358-68.695-32.358-106.671 0-37.973 11.26-75.095 32.358-106.669 21.097-31.575 51.083-56.183 86.167-70.716 3.13-1.297 6.289-2.509 9.474-3.635v362.039z" />
<glyph unicode="&#xe920;" glyph-name="H" d="M277.333 704c0 35.347 28.653 64 64 64s64-28.653 64-64v-192h213.333v192c0 35.347 28.653 64 64 64s64-28.653 64-64v-512c0-35.347-28.653-64-64-64s-64 28.653-64 64v192h-213.333v-192c0-35.347-28.653-64-64-64s-64 28.653-64 64v512zM341.333 725.333c-11.782 0-21.333-9.551-21.333-21.333v-512c0-11.782 9.551-21.333 21.333-21.333s21.333 9.551 21.333 21.333v234.667h298.667v-234.667c0-11.782 9.551-21.333 21.333-21.333s21.333 9.551 21.333 21.333v512c0 11.782-9.551 21.333-21.333 21.333s-21.333-9.551-21.333-21.333v-234.667h-298.667v234.667c0 11.782-9.551 21.333-21.333 21.333z" />
<glyph unicode="&#xe921;" glyph-name="I" d="M277.333 704c0 35.347 28.653 64 64 64h341.333c35.347 0 64-28.653 64-64s-28.653-64-64-64h-106.667v-384h106.667c35.347 0 64-28.653 64-64s-28.653-64-64-64h-341.333c-35.347 0-64 28.653-64 64s28.653 64 64 64h106.667v384h-106.667c-35.347 0-64 28.653-64 64zM341.333 725.333c-11.782 0-21.333-9.551-21.333-21.333s9.551-21.333 21.333-21.333h149.333v-469.333h-149.333c-11.782 0-21.333-9.551-21.333-21.333s9.551-21.333 21.333-21.333h341.333c11.782 0 21.333 9.551 21.333 21.333s-9.551 21.333-21.333 21.333h-149.333v469.333h149.333c11.782 0 21.333 9.551 21.333 21.333s-9.551 21.333-21.333 21.333h-341.333z" />
<glyph unicode="&#xe922;" glyph-name="J" d="M576 704c0 35.347 28.653 64 64 64s64-28.653 64-64v-384c0-106.039-85.961-192-192-192s-192 85.961-192 192c0 35.345 28.653 64 64 64s64-28.655 64-64c0-35.347 28.653-64 64-64s64 28.653 64 64v384zM640 725.333c-11.782 0-21.333-9.551-21.333-21.333v-384c0-58.91-47.757-106.667-106.667-106.667s-106.667 47.757-106.667 106.667c0 11.782-9.551 21.333-21.333 21.333s-21.333-9.551-21.333-21.333c0-82.475 66.859-149.333 149.333-149.333s149.333 66.859 149.333 149.333v384c0 11.782-9.551 21.333-21.333 21.333z" />
<glyph unicode="&#xe923;" glyph-name="K" d="M277.333 192v512c0 35.347 28.653 64 64 64s64-28.653 64-64v-186.825l232.079 232.080c24.992 24.993 65.515 24.993 90.509 0 24.994-24.995 24.994-65.515 0-90.509l-210.746-210.746 210.746-210.746c24.994-24.994 24.994-65.515 0-90.509v0c-24.994-24.994-65.515-24.994-90.509 0l-210.746 210.746-21.333-21.333v-144.158c0-35.347-28.653-64-64-64s-64 28.653-64 64zM320 704v-512c0-11.782 9.551-21.333 21.333-21.333s21.333 9.551 21.333 21.333v152.994c0 5.658 2.249 11.083 6.249 15.085l42.667 42.667c4 4 9.427 6.249 15.085 6.249s11.085-2.249 15.085-6.249l225.83-225.83c8.331-8.331 21.839-8.331 30.17 0s8.331 21.839 0 30.17l-225.83 225.83c-8.331 8.331-8.331 21.839 0 30.17l225.83 225.83c8.331 8.331 8.331 21.839 0 30.17s-21.839 8.331-30.17 0l-268.497-268.497c-6.101-6.101-15.277-7.925-23.249-4.623-7.972 3.3-13.169 11.081-13.169 19.708v238.327c0 11.782-9.551 21.333-21.333 21.333s-21.333-9.551-21.333-21.333z" />
<glyph unicode="&#xe924;" glyph-name="L" d="M320 704c0 35.347 28.653 64 64 64s64-28.653 64-64v-448h192c35.347 0 64-28.653 64-64s-28.653-64-64-64h-256c-35.347 0-64 28.653-64 64v512zM384 725.333c-11.782 0-21.333-9.551-21.333-21.333v-512c0-11.782 9.551-21.333 21.333-21.333h256c11.782 0 21.333 9.551 21.333 21.333s-9.551 21.333-21.333 21.333h-213.333c-11.782 0-21.333 9.551-21.333 21.333v469.333c0 11.782-9.551 21.333-21.333 21.333z" />
<glyph unicode="&#xe925;" glyph-name="M" d="M234.667 192v512c0 26.946 16.877 51.005 42.212 60.177s53.705 1.494 70.955-19.205l164.166-197.001 164.166 197.001c17.25 20.699 45.619 28.378 70.955 19.205s42.212-33.231 42.212-60.177v-512c0-35.347-28.653-64-64-64s-64 28.653-64 64v335.23l-100.166-120.201c-12.16-14.592-30.174-23.029-49.167-23.029s-37.007 8.437-49.167 23.029l-100.166 120.201v-335.23c0-35.347-28.653-64-64-64s-64 28.653-64 64zM277.333 704v-512c0-11.782 9.551-21.333 21.333-21.333s21.333 9.551 21.333 21.333v394.153c0 8.981 5.626 17.003 14.071 20.060 8.444 3.057 17.901 0.497 23.65-6.402l137.89-165.468c4.053-4.864 10.057-7.676 16.388-7.676s12.335 2.812 16.388 7.676l137.89 165.468c5.749 6.899 15.204 9.459 23.65 6.402 8.446-3.059 14.071-11.078 14.071-20.060v-394.153c0-11.782 9.551-21.333 21.333-21.333s21.333 9.551 21.333 21.333v512c0 8.981-5.626 17.003-14.071 20.060s-17.901 0.497-23.65-6.402l-180.557-216.668c-4.053-4.864-10.057-7.676-16.388-7.676s-12.335 2.812-16.388 7.676l-180.557 216.668c-5.749 6.899-15.206 9.459-23.65 6.402-8.446-3.057-14.071-11.078-14.071-20.060z" />
<glyph unicode="&#xe926;" glyph-name="N" d="M234.667 192.004v512c0 26.944 16.877 51.004 42.212 60.176s53.705 1.494 70.955-19.206l313.5-376.201v335.23c0 35.345 28.653 63.999 64 63.999s64-28.654 64-63.999v-512c0-26.946-16.877-51.006-42.212-60.179-25.335-9.171-53.705-1.493-70.955 19.206l-313.5 376.201v-335.228c0-35.347-28.653-64-64-64s-64 28.653-64 64zM277.333 704.004v-512c0-11.782 9.551-21.333 21.333-21.333s21.333 9.551 21.333 21.333v394.153c0 8.981 5.626 17.001 14.071 20.058 8.444 3.059 17.901 0.499 23.65-6.402l351.223-421.466c5.749-6.901 15.204-9.459 23.65-6.402s14.071 11.076 14.071 20.060v512c0 11.78-9.551 21.333-21.333 21.333s-21.333-9.553-21.333-21.333v-394.153c0-8.983-5.626-17.003-14.071-20.060s-17.901-0.499-23.65 6.402l-351.223 421.466c-5.749 6.901-15.206 9.461-23.65 6.402-8.446-3.057-14.071-11.076-14.071-20.058z" />
<glyph unicode="&#xe927;" glyph-name="O" d="M192 448c0 176.732 143.268 320 320 320s320-143.268 320-320c0-176.732-143.268-320-320-320s-320 143.268-320 320zM512 725.333c-153.167 0-277.333-124.166-277.333-277.333s124.166-277.333 277.333-277.333c153.167 0 277.333 124.166 277.333 277.333s-124.166 277.333-277.333 277.333zM512 640c-106.039 0-192-85.961-192-192s85.961-192 192-192c106.039 0 192 85.961 192 192s-85.961 192-192 192zM277.333 448c0 129.602 105.065 234.667 234.667 234.667s234.667-105.065 234.667-234.667c0-129.602-105.065-234.667-234.667-234.667s-234.667 105.065-234.667 234.667z" />
<glyph unicode="&#xe928;" glyph-name="P" d="M277.333 704c0 35.347 28.653 64 64 64h213.333c106.039 0 192-85.961 192-192s-85.961-192-192-192h-149.333v-192c0-35.347-28.653-64-64-64s-64 28.653-64 64v512zM341.333 725.333c-11.782 0-21.333-9.551-21.333-21.333v-512c0-11.782 9.551-21.333 21.333-21.333s21.333 9.551 21.333 21.333v213.333c0 11.782 9.551 21.333 21.333 21.333h170.667c82.475 0 149.333 66.859 149.333 149.333s-66.859 149.333-149.333 149.333h-213.333zM362.667 661.333c0 11.782 9.551 21.333 21.333 21.333h170.667c58.91 0 106.667-47.757 106.667-106.667s-47.757-106.667-106.667-106.667h-170.667c-11.782 0-21.333 9.551-21.333 21.333v170.667zM405.333 640v-128h149.333c35.347 0 64 28.653 64 64s-28.653 64-64 64h-149.333z" />
<glyph unicode="&#xe929;" glyph-name="Q" d="M192 448c0 176.732 143.268 320 320 320s320-143.268 320-320c0-65.193-19.516-125.879-53.020-176.471l34.274-34.274c24.994-24.994 24.994-65.515 0-90.509s-65.515-24.994-90.509 0l-34.274 34.274c-50.592-33.504-111.279-53.020-176.471-53.020-176.732 0-320 143.268-320 320zM512 725.333c-153.167 0-277.333-124.166-277.333-277.333s124.166-277.333 277.333-277.333c62.319 0 119.782 20.529 166.078 55.202l14.799 11.085 60.038-60.038c8.331-8.331 21.839-8.331 30.17 0s8.331 21.839 0 30.17l-60.038 60.038 11.085 14.799c34.673 46.295 55.202 103.759 55.202 166.078 0 153.167-124.166 277.333-277.333 277.333zM512 640c-106.039 0-192-85.961-192-192s85.961-192 192-192c29.668 0 57.73 6.716 82.782 18.707l-42.703 42.705c-24.994 24.994-24.994 65.515 0 90.509s65.515 24.994 90.509 0l42.705-42.703c11.991 25.052 18.707 53.114 18.707 82.782 0 106.039-85.961 192-192 192zM277.333 448c0 129.602 105.065 234.667 234.667 234.667s234.667-105.065 234.667-234.667c0-47.797-14.313-92.318-38.893-129.429l-14.413-21.762-80.943 80.943c-8.331 8.331-21.839 8.331-30.17 0s-8.331-21.839 0-30.17l80.943-80.943-21.762-14.413c-37.111-24.58-81.632-38.893-129.429-38.893-129.602 0-234.667 105.065-234.667 234.667z" />
<glyph unicode="&#xe92a;" glyph-name="question_mark" d="M514.534 767.974c-0.614 0.017-1.231 0.026-1.85 0.026h-1.37c-0.617 0-1.233-0.009-1.847-0.026-104.617-1.713-189.468-86.683-189.468-191.974 0-35.347 28.655-64 64-64 35.347 0 64 28.653 64 64 0 34.818 28.294 63.633 64 63.996 35.706-0.363 64-29.178 64-63.996 0-35.040-28.655-64-64.685-64-35.345 0-64-28.653-64-64v-85.333c0-35.347 28.655-64 64-64 35.347 0 64 28.653 64 64v32.192c74.795 26.251 128.685 97.233 128.685 181.141 0 105.291-84.851 190.26-189.466 191.974zM512.685 725.333c0.233 0 0.463-0.004 0.693-0.011l0.335-0.009c81.649-1.271 147.62-67.539 147.62-149.314 0-69.679-47.895-128.126-112.631-144.659-9.444-2.413-16.053-10.921-16.053-20.67v-48.004c0-11.782-9.551-21.333-21.333-21.333s-21.333 9.551-21.333 21.333v85.333c0 11.782 9.551 21.333 21.333 21.333 59.413 0 107.351 47.881 107.351 106.667 0 58.507-47.482 106.208-106.502 106.662h-0.329c-59.021-0.454-106.502-48.156-106.502-106.662 0-11.782-9.551-21.333-21.333-21.333-11.78 0-21.333 9.551-21.333 21.333 0 81.775 65.973 148.043 147.62 149.314l0.337 0.009c0.228 0.006 0.459 0.011 0.691 0.011h1.37zM512 213.333c-11.782 0-21.333-9.551-21.333-21.333s9.551-21.333 21.333-21.333c11.782 0 21.333 9.551 21.333 21.333s-9.551 21.333-21.333 21.333zM448 192c0 35.347 28.653 64 64 64s64-28.653 64-64c0-35.347-28.653-64-64-64s-64 28.653-64 64z" />
<glyph unicode="&#xe92b;" glyph-name="R" d="M277.333 704c0 35.347 28.653 64 64 64h213.333c106.039 0 192-85.961 192-192 0-72.787-40.497-136.075-100.13-168.629l93.374-186.75c15.806-31.614 2.993-70.057-28.623-85.865-31.614-15.806-70.057-2.993-85.865 28.623l-110.31 220.621h-109.779v-192c0-35.347-28.653-64-64-64s-64 28.653-64 64v512zM341.333 725.333c-11.782 0-21.333-9.551-21.333-21.333v-512c0-11.782 9.551-21.333 21.333-21.333s21.333 9.551 21.333 21.333v213.333c0 11.782 9.551 21.333 21.333 21.333h144.297c8.081 0 15.469-4.565 19.083-11.793l116.207-232.414c5.269-10.539 18.082-14.81 28.621-9.54s14.81 18.082 9.54 28.621l-103.134 206.268c-2.671 5.344-2.98 11.563-0.851 17.143s6.5 10.014 12.051 12.222c55.215 21.954 94.187 75.866 94.187 138.827 0 82.475-66.859 149.333-149.333 149.333h-213.333zM362.667 661.333c0 11.782 9.551 21.333 21.333 21.333h170.667c58.91 0 106.667-47.757 106.667-106.667s-47.757-106.667-106.667-106.667h-170.667c-11.782 0-21.333 9.551-21.333 21.333v170.667zM405.333 640v-128h149.333c35.347 0 64 28.653 64 64s-28.653 64-64 64h-149.333z" />
<glyph unicode="&#xe92c;" glyph-name="rupee" d="M320 704c0 35.347 28.655 64 64 64h256c35.347 0 64-28.653 64-64s-28.653-64-64-64c35.347 0 64-28.653 64-64s-28.653-64-64-64h-32.265c-18.748-53.045-60.117-95.373-112.546-115.407l112.73-169.092c19.605-29.41 11.659-69.146-17.751-88.753-29.41-19.605-69.146-11.659-88.751 17.751l-170.667 256c-13.094 19.639-14.315 44.89-3.177 65.7 11.136 20.809 32.823 33.801 56.427 33.801-35.345 0-64 28.653-64 64s28.655 64 64 64c-35.345 0-64 28.653-64 64zM384 725.333c-11.782 0-21.333-9.551-21.333-21.333s9.551-21.333 21.333-21.333h42.667c39.509 0 73.973-21.491 92.384-53.318 3.817-6.601 3.823-14.735 0.013-21.34s-10.854-10.675-18.479-10.675h-116.585c-11.782 0-21.333-9.551-21.333-21.333s9.551-21.333 21.333-21.333h116.585c7.625 0 14.669-4.070 18.479-10.675s3.804-14.739-0.013-21.34c-18.411-31.827-52.875-53.318-92.384-53.318h-42.667c-7.868 0-15.098-4.331-18.81-11.266-3.712-6.938-3.305-15.354 1.060-21.901l170.667-256c6.534-9.803 19.78-12.452 29.583-5.918 9.803 6.537 12.452 19.782 5.918 29.585l-128.798 193.197c-3.936 5.903-4.678 13.374-1.986 19.936 2.694 6.562 8.474 11.356 15.42 12.789 55.723 11.511 100.149 54.142 114.242 108.896 2.428 9.425 10.927 16.015 20.661 16.015h48.043c11.782 0 21.333 9.551 21.333 21.333s-9.551 21.333-21.333 21.333h-48.043c-9.734 0-18.234 6.59-20.661 16.015-3.405 13.229-8.578 25.751-15.262 37.303-3.817 6.601-3.823 14.735-0.013 21.34s10.854 10.675 18.479 10.675h65.5c11.782 0 21.333 9.551 21.333 21.333s-9.551 21.333-21.333 21.333h-256z" />
<glyph unicode="&#xe92d;" glyph-name="S" d="M277.333 576c0 106.039 85.961 192 192 192h85.333c83.71 0 154.735-53.532 181.058-128.006 11.778-33.325-5.687-69.89-39.014-81.668-33.325-11.78-69.89 5.687-81.668 39.014-8.809 24.922-32.587 42.66-60.375 42.66h-85.333c-35.347 0-64-28.653-64-64s28.653-64 64-64h85.333c106.039 0 192-85.961 192-192s-85.961-192-192-192h-85.333c-83.71 0-154.735 53.532-181.058 128.006-11.778 33.325 5.687 69.89 39.014 81.668 33.325 11.78 69.89-5.687 81.668-39.014 8.809-24.922 32.587-42.66 60.375-42.66h85.333c35.347 0 64 28.653 64 64s-28.653 64-64 64h-85.333c-106.039 0-192 85.961-192 192zM469.333 725.333c-82.475 0-149.333-66.859-149.333-149.333s66.859-149.333 149.333-149.333h85.333c58.91 0 106.667-47.757 106.667-106.667s-47.757-106.667-106.667-106.667h-85.333c-46.387 0-85.941 29.63-100.602 71.108-3.927 11.11-16.115 16.932-27.223 13.005-11.11-3.925-16.932-16.113-13.005-27.221 20.493-57.984 75.787-99.558 140.83-99.558h85.333c82.475 0 149.333 66.859 149.333 149.333s-66.859 149.333-149.333 149.333h-85.333c-58.91 0-106.667 47.757-106.667 106.667s47.757 106.667 106.667 106.667h85.333c46.387 0 85.941-29.63 100.602-71.108 3.927-11.11 16.115-16.932 27.223-13.005 11.11 3.925 16.932 16.113 13.005 27.221-20.493 57.984-75.787 99.558-140.83 99.558h-85.333z" />
<glyph unicode="&#xe92e;" glyph-name="T" d="M277.333 704c0 35.347 28.653 64 64 64h341.333c35.347 0 64-28.653 64-64s-28.653-64-64-64h-106.667v-448c0-35.347-28.653-64-64-64s-64 28.653-64 64v448h-106.667c-35.347 0-64 28.653-64 64zM341.333 725.333c-11.782 0-21.333-9.551-21.333-21.333s9.551-21.333 21.333-21.333h149.333v-490.667c0-11.782 9.551-21.333 21.333-21.333s21.333 9.551 21.333 21.333v490.667h149.333c11.782 0 21.333 9.551 21.333 21.333s-9.551 21.333-21.333 21.333h-341.333z" />
<glyph unicode="&#xe92f;" glyph-name="U" d="M277.333 704c0 35.347 28.653 64 64 64s64-28.653 64-64v-341.333c0-58.91 47.757-106.667 106.667-106.667s106.667 47.757 106.667 106.667v341.333c0 35.347 28.653 64 64 64s64-28.653 64-64v-341.333c0-129.602-105.065-234.667-234.667-234.667s-234.667 105.065-234.667 234.667v341.333zM341.333 725.333c-11.782 0-21.333-9.551-21.333-21.333v-341.333c0-106.039 85.961-192 192-192s192 85.961 192 192v341.333c0 11.782-9.551 21.333-21.333 21.333s-21.333-9.551-21.333-21.333v-341.333c0-82.475-66.859-149.333-149.333-149.333s-149.333 66.859-149.333 149.333v341.333c0 11.782-9.551 21.333-21.333 21.333z" />
<glyph unicode="&#xe930;" glyph-name="V" d="M452.919 167.386c9.937-23.851 33.239-39.386 59.076-39.386s49.139 15.535 59.076 39.386l213.333 512c13.596 32.627-1.833 70.097-34.46 83.691s-70.099-1.834-83.693-34.463l-154.257-370.214-154.257 370.214c-13.594 32.628-51.063 48.057-83.691 34.463s-48.058-51.064-34.462-83.691l213.333-512zM511.996 170.667c-8.612 0-16.38 5.178-19.693 13.129l-213.333 512c-4.531 10.876 0.612 23.366 11.488 27.898s23.366-0.612 27.898-11.488l173.948-417.476c3.313-7.951 11.081-13.129 19.693-13.129s16.38 5.178 19.693 13.129l173.948 417.476c4.531 10.876 17.022 16.019 27.898 11.488s16.019-17.022 11.488-27.898l-213.333-512c-3.313-7.951-11.081-13.129-19.693-13.129z" />
<glyph unicode="&#xe931;" glyph-name="W" d="M245.478 767.135c-34.866-5.811-58.419-38.785-52.608-73.65l85.333-512c4.45-26.701 25.216-47.714 51.859-52.48 26.645-4.766 53.408 7.746 66.837 31.247l115.1 201.425 115.1-201.425c13.429-23.501 40.19-36.013 66.835-31.247s47.411 25.779 51.861 52.48l85.333 512c5.811 34.865-17.743 67.839-52.608 73.65s-67.84-17.742-73.651-52.607l-55.791-334.75-81.513 142.647c-11.394 19.94-32.602 32.247-55.567 32.247-22.967 0-44.173-12.307-55.569-32.247l-81.51-142.645-55.791 334.748c-5.811 34.864-38.786 58.418-73.651 52.607zM234.957 700.499c-1.937 11.62 5.914 22.613 17.536 24.55s22.613-5.916 24.55-17.536l65.638-393.833c1.483-8.9 8.405-15.904 17.286-17.493s17.803 2.581 22.278 10.415l111.23 194.654c3.799 6.647 10.867 10.75 18.524 10.75 7.654 0 14.724-4.102 18.522-10.75l111.23-194.654c4.478-7.834 13.397-12.004 22.281-10.415 8.881 1.589 15.802 8.593 17.286 17.493l65.638 393.833c1.937 11.62 12.928 19.473 24.55 17.536s19.473-12.93 17.536-24.55l-85.333-512c-1.485-8.9-8.405-15.904-17.286-17.493-8.883-1.589-17.803 2.581-22.281 10.415l-133.621 233.839c-3.797 6.645-10.867 10.748-18.522 10.748-7.657 0-14.724-4.102-18.524-10.748l-133.621-233.839c-4.476-7.834-13.397-12.004-22.278-10.415s-15.804 8.593-17.286 17.493l-85.333 512z" />
<glyph unicode="&#xe932;" glyph-name="X" d="M676.169 744.971c22.628 27.153 62.985 30.822 90.138 8.194 27.155-22.628 30.822-62.984 8.194-90.137l-179.189-215.029 179.189-215.027c22.628-27.155 18.961-67.511-8.194-90.138-27.153-22.628-67.509-18.961-90.138 8.194l-164.166 197.001-164.169-197.001c-22.628-27.155-62.982-30.822-90.138-8.194-27.153 22.626-30.822 62.982-8.194 90.138l179.191 215.027-179.191 215.029c-22.628 27.153-18.959 67.509 8.194 90.137 27.155 22.628 67.509 18.959 90.138-8.194l164.169-197.001 164.166 197.001zM738.993 720.386c-9.052 7.543-22.505 6.321-30.046-2.731v0l-180.557-216.668c-4.053-4.864-10.057-7.676-16.388-7.676s-12.337 2.812-16.388 7.676l-180.557 216.668c-7.543 9.052-20.994 10.274-30.046 2.731-9.052-7.541-10.274-20.994-2.731-30.046l190.571-228.685c6.592-7.91 6.592-19.403 0-27.315l-190.571-228.685c-7.543-9.052-6.321-22.502 2.731-30.046s22.502-6.319 30.046 2.731l180.557 216.668c4.051 4.864 10.057 7.676 16.388 7.676s12.335-2.812 16.388-7.676l180.557-216.668c7.541-9.050 20.994-10.274 30.046-2.731 9.050 7.543 10.274 20.994 2.731 30.046l-190.571 228.685c-6.594 7.913-6.594 19.405 0 27.315l190.571 228.685c7.543 9.052 6.319 22.505-2.731 30.046z" />
<glyph unicode="&#xe933;" glyph-name="Y" d="M676.169 744.971c22.628 27.153 62.985 30.822 90.138 8.194 27.155-22.628 30.822-62.984 8.194-90.137v0l-198.498-238.199v-232.83c0-35.345-28.655-64-64-64-35.347 0-64 28.655-64 64v232.83l-198.5 238.199c-22.628 27.153-18.959 67.509 8.194 90.137v0c27.155 22.628 67.509 18.959 90.138-8.194l164.169-197.001 164.166 197.001zM738.993 720.386c-9.052 7.543-22.505 6.321-30.048-2.731l-180.555-216.668c-4.053-4.864-10.057-7.676-16.388-7.676s-12.337 2.812-16.388 7.676l-180.557 216.668c-7.543 9.052-20.994 10.274-30.046 2.731-9.052-7.541-10.274-20.994-2.731-30.046l203.443-244.132c3.196-3.834 4.945-8.666 4.945-13.658v-240.553c0-11.782 9.551-21.333 21.333-21.333s21.333 9.551 21.333 21.333v240.553c0 4.992 1.749 9.824 4.945 13.658l203.443 244.132c7.543 9.052 6.319 22.505-2.731 30.046z" />
<glyph unicode="&#xe934;" glyph-name="yen" d="M676.169 744.971c22.628 27.153 62.985 30.822 90.138 8.194 27.155-22.628 30.822-62.984 8.194-90.137v0l-126.291-151.55c31.471-4.030 55.793-30.914 55.793-63.479 0-35.328-28.627-63.972-63.949-64 35.322-0.028 63.949-28.67 63.949-64 0-35.345-28.655-64-64-64h-64v-64c0-35.345-28.655-64-64-64-35.347 0-64 28.655-64 64v64h-64c-35.347 0-64 28.655-64 64 0 35.33 28.625 63.972 63.949 64-35.324 0.028-63.949 28.672-63.949 64 0 32.565 24.322 59.45 55.791 63.479l-126.291 151.55c-22.628 27.153-18.959 67.509 8.194 90.137v0c27.155 22.628 67.509 18.959 90.138-8.194l164.169-197.001 164.166 197.001zM738.993 720.386c-9.052 7.543-22.505 6.321-30.048-2.731l-180.555-216.668c-4.053-4.864-10.057-7.676-16.388-7.676s-12.337 2.812-16.388 7.676l-180.557 216.668c-7.543 9.052-20.994 10.274-30.046 2.731-9.052-7.541-10.274-20.994-2.731-30.046l155.014-186.018c5.299-6.359 6.443-15.211 2.931-22.705-3.511-7.497-11.042-12.286-19.319-12.286h-36.905c-11.782 0-21.333-9.551-21.333-21.333s9.551-21.333 21.333-21.333h85.333c11.782 0 21.333-9.551 21.333-21.333v-42.667c0-11.782-9.551-21.333-21.333-21.333h-85.333c-11.782 0-21.333-9.551-21.333-21.333s9.551-21.333 21.333-21.333h85.333c11.782 0 21.333-9.551 21.333-21.333v-85.333c0-11.782 9.551-21.333 21.333-21.333s21.333 9.551 21.333 21.333v85.333c0 11.782 9.551 21.333 21.333 21.333h85.333c11.782 0 21.333 9.551 21.333 21.333s-9.551 21.333-21.333 21.333h-85.333c-11.782 0-21.333 9.551-21.333 21.333v42.667c0 11.782 9.551 21.333 21.333 21.333h85.333c11.782 0 21.333 9.551 21.333 21.333s-9.551 21.333-21.333 21.333h-36.905c-8.279 0-15.81 4.789-19.319 12.286-3.511 7.494-2.37 16.346 2.929 22.705l155.017 186.018c7.543 9.052 6.319 22.505-2.731 30.046z" />
<glyph unicode="&#xe935;" glyph-name="Z" d="M298.667 768h426.667c24.834 0 47.426-14.365 57.958-36.853v0c10.532-22.49 7.106-49.041-8.791-68.119l-339.189-407.027h290.022c35.347 0 64-28.655 64-64 0-35.347-28.653-64-64-64h-426.667c-24.832 0-47.424 14.366-57.956 36.853v0c-10.534 22.49-7.106 49.041 8.791 68.117l339.189 407.029h-290.025c-35.345 0-64 28.653-64 64s28.655 64 64 64zM725.333 725.333h-426.667c-11.78 0-21.333-9.551-21.333-21.333s9.553-21.333 21.333-21.333h335.573c8.277 0 15.808-4.789 19.317-12.284 3.511-7.497 2.37-16.348-2.929-22.707l-368.35-442.018c-5.299-6.359-6.441-15.211-2.931-22.707 3.511-7.494 11.042-12.284 19.319-12.284h426.667c11.782 0 21.333 9.551 21.333 21.333s-9.551 21.333-21.333 21.333h-335.571c-8.277 0-15.808 4.789-19.319 12.284-3.511 7.497-2.368 16.348 2.931 22.707l368.35 442.018c5.299 6.359 6.441 15.211 2.929 22.707-3.511 7.494-11.040 12.284-19.319 12.284z" />
<glyph unicode="&#xe936;" glyph-name="g" d="M693.020 842.351c23.772-23.772 42.628-51.993 55.494-83.052 12.864-31.060 19.486-64.348 19.486-97.967 0-33.617-6.622-66.908-19.486-97.967-12.866-31.059-31.723-59.281-55.494-83.053l30.17-30.17c27.733 27.733 49.734 60.659 64.742 96.894 15.010 36.237 22.735 75.074 22.735 114.295s-7.725 78.059-22.735 114.295c-15.008 36.236-37.009 69.161-64.742 96.894l-30.17-30.17zM400 298.667c14.729 0 26.667-11.938 26.667-26.667 0-7.895-3.405-14.967-8.894-19.881-0.203-0.181-0.401-0.367-0.597-0.555l-112-108.224c-6.253-6.042-8.213-15.275-4.954-23.334 3.258-8.062 11.083-13.34 19.778-13.34h128c11.782 0 21.333 9.551 21.333 21.333s-9.551 21.333-21.333 21.333h-75.221l73.779 71.29c13.958 12.657 22.775 31.002 22.775 51.377 0 38.291-31.042 69.333-69.333 69.333h-32c-30.221 0-55.874-19.324-65.382-46.225-3.927-11.108 1.897-23.296 13.005-27.221 11.108-3.927 23.296 1.894 27.223 13.005 3.669 10.385 13.577 17.775 25.154 17.775h32zM698.722 282.15c7.855 8.781 7.104 22.268-1.679 30.123-15.62 13.973-34.733 23.537-55.366 27.642-22.775 4.531-46.381 2.206-67.834-6.682-21.455-8.885-39.791-23.934-52.691-43.243-12.902-19.307-19.787-42.005-19.787-65.227s6.884-45.922 19.787-65.229c12.9-19.307 31.236-34.355 52.691-43.243 21.453-8.885 45.058-11.211 67.834-6.682 20.634 4.105 39.746 13.668 55.366 27.642 4.525 4.047 7.113 9.83 7.113 15.902v71.61c0 11.782-9.551 21.333-21.333 21.333h-64.051c-11.78 0-21.333-9.551-21.333-21.333s9.553-21.333 21.333-21.333h42.718v-39.998c-8.416-5.862-17.986-9.956-28.137-11.974-14.498-2.884-29.525-1.404-43.183 4.254-13.658 5.655-25.329 15.236-33.542 27.526-8.213 12.292-12.595 26.741-12.595 41.525 0 14.782 4.382 29.233 12.595 41.523s19.885 21.871 33.542 27.529c13.658 5.655 28.685 7.136 43.183 4.252 13.137-2.611 25.301-8.7 35.247-17.596 8.781-7.855 22.268-7.102 30.123 1.679zM213.333 362.667v-277.333c0-35.347 28.653-64 64-64h469.333c35.347 0 64 28.653 64 64v277.333c0 35.347-28.653 64-64 64h-469.333c-35.347 0-64-28.653-64-64zM256 362.667c0 11.782 9.551 21.333 21.333 21.333h469.333c11.782 0 21.333-9.551 21.333-21.333v-277.333c0-11.782-9.551-21.333-21.333-21.333h-469.333c-11.782 0-21.333 9.551-21.333 21.333v277.333zM630.257 710.315c-6.432 15.529-15.861 29.641-27.748 41.526l30.172 30.17c15.846-15.848 28.418-34.662 36.994-55.367 8.578-20.708 12.992-42.899 12.992-65.312s-4.414-44.606-12.992-65.312c-8.576-20.706-21.148-39.52-36.994-55.369l-30.172 30.17c11.887 11.887 21.316 25.997 27.748 41.527s9.743 32.175 9.743 48.983-3.311 33.453-9.743 48.983zM393.743 710.315c6.434 15.529 15.861 29.641 27.748 41.526l-30.172 30.17c-15.846-15.848-28.418-34.662-36.994-55.367-8.578-20.708-12.992-42.899-12.992-65.312s4.414-44.606 12.992-65.312c8.576-20.706 21.148-39.52 36.994-55.369l30.172 30.17c-11.887 11.887-21.314 25.997-27.748 41.527-6.432 15.529-9.743 32.175-9.743 48.983s3.311 33.453 9.743 48.983zM330.98 842.351c-23.772-23.772-42.628-51.993-55.494-83.052-12.864-31.060-19.486-64.348-19.486-97.967 0-33.617 6.622-66.908 19.486-97.967 12.866-31.059 31.723-59.281 55.494-83.053l-30.17-30.17c-27.733 27.733-49.732 60.659-64.742 96.896-15.010 36.235-22.735 75.072-22.735 114.293s7.725 78.059 22.735 114.295c15.010 36.236 37.009 69.161 64.742 96.894l30.17-30.17zM512 618.667c23.565 0 42.667 19.102 42.667 42.667s-19.102 42.667-42.667 42.667c-23.565 0-42.667-19.102-42.667-42.667s19.102-42.667 42.667-42.667z" />
<glyph unicode="&#xe937;" glyph-name="g1" d="M275.486 759.299c12.866 31.059 31.723 59.281 55.494 83.052l-30.17 30.17c-27.733-27.734-49.732-60.658-64.742-96.894s-22.735-75.074-22.735-114.295c0-39.221 7.725-78.059 22.735-114.293 15.010-36.237 37.009-69.163 64.742-96.896l30.17 30.17c-23.772 23.772-42.628 51.994-55.494 83.053-12.864 31.059-19.486 64.35-19.486 97.967 0 33.619 6.622 66.908 19.486 97.967zM693.020 842.351c23.772-23.772 42.628-51.993 55.494-83.052 12.864-31.060 19.486-64.348 19.486-97.967 0-33.617-6.622-66.908-19.486-97.967-12.866-31.059-31.723-59.281-55.494-83.053l30.17-30.17c27.733 27.733 49.734 60.659 64.742 96.894 15.010 36.237 22.735 75.074 22.735 114.295s-7.725 78.059-22.735 114.295c-15.008 36.236-37.009 69.161-64.742 96.894l-30.17-30.17zM602.509 751.84c11.887-11.885 21.316-25.997 27.748-41.526 6.432-15.531 9.743-32.175 9.743-48.983s-3.311-33.455-9.743-48.983c-6.432-15.531-15.861-29.641-27.748-41.527l30.172-30.17c15.846 15.849 28.418 34.662 36.994 55.369 8.578 20.706 12.992 42.899 12.992 65.312s-4.414 44.604-12.992 65.312c-8.576 20.705-21.148 39.519-36.994 55.367l-30.172-30.17zM421.491 751.84c-11.887-11.885-21.314-25.997-27.748-41.526-6.432-15.531-9.743-32.175-9.743-48.983s3.311-33.455 9.743-48.983c6.434-15.531 15.861-29.641 27.748-41.527l-30.172-30.17c-15.846 15.849-28.418 34.662-36.994 55.369-8.578 20.706-12.992 42.899-12.992 65.312s4.414 44.604 12.992 65.312c8.576 20.705 21.148 39.519 36.994 55.367l30.172-30.17zM554.667 661.333c0-23.565-19.102-42.667-42.667-42.667s-42.667 19.102-42.667 42.667c0 23.565 19.102 42.667 42.667 42.667s42.667-19.102 42.667-42.667zM697.043 312.284c8.783-7.855 9.534-21.342 1.679-30.123-7.855-8.783-21.342-9.534-30.123-1.679-9.946 8.896-22.11 14.985-35.247 17.596-14.498 2.884-29.525 1.404-43.183-4.252-13.658-5.658-25.329-15.238-33.542-27.529-8.213-12.292-12.595-26.741-12.595-41.523 0-14.784 4.382-29.233 12.595-41.525 8.213-12.29 19.885-21.871 33.542-27.526 13.658-5.658 28.685-7.138 43.183-4.254 10.15 2.018 19.721 6.112 28.137 11.972v40h-42.718c-11.78 0-21.333 9.551-21.333 21.333 0 11.78 9.553 21.333 21.333 21.333h64.051c11.782 0 21.333-9.553 21.333-21.333v-71.61c0-6.071-2.588-11.855-7.113-15.902-15.62-13.973-34.733-23.537-55.366-27.642-22.775-4.529-46.381-2.204-67.834 6.682-21.455 8.885-39.791 23.934-52.691 43.243-12.902 19.307-19.787 42.007-19.787 65.229 0 23.219 6.884 45.92 19.787 65.227 12.9 19.309 31.236 34.357 52.691 43.243 21.453 8.887 45.058 11.213 67.834 6.682 20.634-4.105 39.746-13.668 55.366-27.642zM426.667 272c0 14.295-11.972 26.667-27.714 26.667h-32.698c-12.32 0-22.494-7.68-26.191-17.914-4.002-11.081-16.228-16.819-27.311-12.817-11.081 4.002-16.819 16.228-12.817 27.311 9.769 27.053 35.93 46.086 66.319 46.086h32.698c38.434 0 70.381-30.611 70.381-69.333 0-18.756-7.494-35.607-19.59-48 12.096-12.393 19.59-29.244 19.59-48 0-38.722-31.947-69.333-70.381-69.333h-32.698c-30.389 0-56.55 19.034-66.319 46.086-4.002 11.083 1.737 23.309 12.817 27.311 11.083 4.002 23.309-1.737 27.311-12.817 3.697-10.234 13.871-17.914 26.191-17.914h32.698c15.742 0 27.714 12.371 27.714 26.667s-11.972 26.667-27.714 26.667h-32.698c-11.78 0-21.333 9.551-21.333 21.333s9.553 21.333 21.333 21.333h32.698c15.742 0 27.714 12.371 27.714 26.667zM213.333 362.667v-277.333c0-35.347 28.653-64 64-64h469.333c35.347 0 64 28.653 64 64v277.333c0 35.347-28.653 64-64 64h-469.333c-35.347 0-64-28.653-64-64zM256 362.667c0 11.782 9.551 21.333 21.333 21.333h469.333c11.782 0 21.333-9.551 21.333-21.333v-277.333c0-11.782-9.551-21.333-21.333-21.333h-469.333c-11.782 0-21.333 9.551-21.333 21.333v277.333z" />
<glyph unicode="&#xe939;" glyph-name="alert_circle" d="M512 874.667c235.642 0 426.667-191.025 426.667-426.667s-191.025-426.667-426.667-426.667c-235.642 0-426.667 191.025-426.667 426.667s191.025 426.667 426.667 426.667zM512 832c-212.077 0-384-171.923-384-384s171.923-384 384-384c212.077 0 384 171.923 384 384s-171.923 384-384 384zM554.667 682.667c0 23.565-19.102 42.667-42.667 42.667s-42.667-19.102-42.667-42.667v-298.667c0-23.565 19.102-42.667 42.667-42.667s42.667 19.102 42.667 42.667v298.667zM512 256c23.565 0 42.667-19.102 42.667-42.667s-19.102-42.667-42.667-42.667c-23.565 0-42.667 19.102-42.667 42.667s19.102 42.667 42.667 42.667z" />
<glyph unicode="&#xe93a;" glyph-name="alert_triangle" d="M512 832c8.081 0 15.467-4.565 19.081-11.793l362.667-725.334c3.307-6.613 2.955-14.466-0.932-20.755-3.889-6.289-10.754-10.118-18.148-10.118h-725.333c-7.394 0-14.26 3.829-18.147 10.118s-4.24 14.142-0.934 20.755l362.667 725.334c3.614 7.228 10.999 11.793 19.081 11.793zM183.851 106.667h656.298l-328.149 656.297-328.149-656.297zM469.333 533.333c0 23.565 19.102 42.667 42.667 42.667s42.667-19.102 42.667-42.667v-213.333c0-23.565-19.102-42.667-42.667-42.667s-42.667 19.102-42.667 42.667v213.333zM469.338 192.719c0 23.168 18.782 41.948 41.948 41.948h1.438c23.168 0 41.948-18.78 41.948-41.948 0-23.166-18.78-41.948-41.948-41.948h-1.438c-23.166 0-41.948 18.782-41.948 41.948z" />
<glyph unicode="&#xe93b;" glyph-name="animal_chicken" d="M405.333 64h202.667v-42.667h-202.667v42.667zM533.333 149.333c11.78 0 21.333-9.551 21.333-21.333v-85.333c0-11.78-9.553-21.333-21.333-21.333-11.782 0-21.333 9.553-21.333 21.333v85.333c0 11.782 9.551 21.333 21.333 21.333zM362.667 469.333c11.78 0 21.333-9.551 21.333-21.333 0-130.895 99.283-234.667 218.959-234.667 66.441 0 126.281 31.74 166.669 82.49 7.339 9.22 20.759 10.746 29.978 3.409s10.746-20.759 3.409-29.978c-47.767-60.019-119.505-98.588-200.055-98.588-145.745 0-261.626 125.459-261.626 277.333 0 11.782 9.551 21.333 21.333 21.333zM298.153 725.333c-37.331 0-63.55-36.772-51.379-72.066l12.203-35.388c12.599-36.542 13.875-76.034 3.659-113.312l-10.556-38.511c-19.255-70.259-22.803-141.385 14.863-193.397 53.909-74.445 143.454-123.326 245.056-123.326 145.786 0 266.485 100.542 293.154 232.619 7.287 36.092 18.101 75.055 41.186 108.262l-259.159-41.754c-51.966-8.373-103.761 15.923-130.547 61.235l-111.691 188.945c-9.779 16.544-27.569 26.692-46.788 26.692zM206.436 639.358c-21.724 62.999 25.077 128.643 91.716 128.643 34.306 0 66.061-18.117 83.518-47.647l111.691-188.947c17.858-30.208 52.388-46.404 87.031-40.823l268.356 43.236c34.807 5.606 58.487-34.315 36.875-62.17-20.7-26.682-31.108-60.8-38.647-98.142-30.807-152.565-169.483-266.842-334.978-266.842-115.494 0-217.805 55.614-279.614 140.966-49.588 68.478-41.521 156.484-21.454 229.7l10.555 38.511c7.945 28.992 6.955 59.708-2.846 88.126l-12.202 35.388zM321.828 832.001c26.88 26.879 72.838 7.842 72.838-30.17v-33.83h33.828c38.012 0 57.050-45.957 30.172-72.837l-38.249-38.249c-8.333-8.331-21.839-8.331-30.172 0-8.331 8.333-8.331 21.839 0 30.172l38.249 38.246h-33.828c-23.565 0-42.667 19.104-42.667 42.668v33.83l-183.164-183.164h55.164c11.78 0 21.333-9.551 21.333-21.333 0-11.78-9.553-21.333-21.333-21.333h-55.164c-38.012 0-57.049 45.958-30.17 72.838l183.163 183.163zM320 682.667c0-11.78-9.553-21.333-21.333-21.333-11.782 0-21.333 9.553-21.333 21.333 0 11.782 9.551 21.333 21.333 21.333 11.78 0 21.333-9.551 21.333-21.333z" />
<glyph unicode="&#xe93c;" glyph-name="animal_cow" d="M597.331 341.331h-42.667c0-58.91 57.308-106.667 128-106.667 37.301 0 70.876 13.297 94.27 34.511l-40.015 22.867c-13.828-8.855-32.055-14.711-54.255-14.711-54.743 0-85.333 35.607-85.333 64zM415.275 685.31c13.033-1.673 27.375-2.645 43.388-2.645h280.211c30.573 0 65.318-9.31 92.343-37.139 27.042-27.849 43.445-71.249 43.445-133.527v-362.667c0-11.782-9.551-21.333-21.333-21.333h-64c-23.565 0-42.667 19.102-42.667 42.667 0 13.786 6.528 26.027 16.663 33.824l-4.591 55.089c-47.317 11.078-80.926 33.389-109.975 60.418h-158.097v-170.667c0-11.78-9.551-21.333-21.333-21.333h-64c-23.563 0-42.667 19.104-42.667 42.667 0 13.786 6.53 26.029 16.663 33.826l-6.844 82.123c-30.071 37.897-56.651 94.784-81.327 161.547-3.927 1.862-7.729 4.156-11.349 6.891l-41.453 31.307c-3.703 2.797-8.218 4.309-12.858 4.309h-66.6c-28.505 0-53.574 18.852-61.486 46.238l-6.163 21.333c-11.327 39.209 16.387 78.338 56.192 81.549l48.448 60.561c-1.65 1.186-3.392 2.402-5.237 3.652h-30.654c-17.673 0-32 14.325-32 32 0 17.452 13.971 31.641 31.34 31.993 70.22 3.434 114.956-6.239 149.699-30.96 5.653 5.649 12.028 11.113 18.925 16.193 10.253 7.551 18.837 12.729 27.895 15.668 8.708 2.826 16.595 3.093 23.206 3.316 0.309 0.010 0.614 0.021 0.917 0.031 5.798 0.201 12.288 0.429 21.359 1.579 11.511 1.459 26.112 0.195 35.996-11.261 9.651-11.186 8.646-25.029 6.466-33.757-3.844-15.403-14.98-31.543-28.525-43.49zM237.747 721.521c0.826-0.73 1.636-1.457 2.432-2.182 8.303-7.58 9.299-20.303 2.276-29.084l-67.935-84.917c-4.048-5.060-10.178-8.006-16.659-8.006h-5.13c-14.199 0-24.436-13.613-20.495-27.253l6.163-21.333c2.637-9.129 10.993-15.413 20.495-15.413h66.6c13.922 0 27.462-4.54 38.571-12.928l41.453-31.307c2.505-1.892 5.079-3.074 7.605-3.723 6.829-1.754 12.35-6.769 14.75-13.397 26.622-73.504 53.564-129.997 81.619-163.23 2.857-3.386 4.591-7.575 4.958-11.989l8.606-103.279c0.922-11.057-6.786-20.973-17.724-22.812l42.662-0.004v170.667c0 11.782 9.551 21.333 21.333 21.333h187.964c5.562 0 10.903-2.17 14.886-6.050 29.423-28.661 61.054-50.014 110.020-58.244 9.617-1.615 16.913-9.547 17.724-19.266l7.134-85.623c0.922-11.057-6.786-20.973-17.724-22.81l42.662-0.004v341.333c0 55.053-14.411 86.319-31.39 103.804-16.996 17.504-39.477 24.196-61.732 24.196h-280.211c-48.834 0-84.698 8.175-114.639 18.385-9.075 3.095-14.97 11.863-14.411 21.436s7.435 17.596 16.809 19.612c14.554 3.132 28.363 8.565 36.796 14.775 4.907 3.614 9.453 8.275 12.998 13.131 0.821 1.122 1.553 2.21 2.204 3.247-6.959-0.64-12.465-0.83-16.898-0.983l-0.064-0.002c-7.686-0.267-9.92-0.474-12.435-1.291-2.573-0.834-6.801-2.842-15.761-9.44-10.929-8.049-19.108-16.606-23.9-23.65-3.518-5.171-9.129-8.538-15.345-9.21-6.217-0.674-12.416 1.417-16.958 5.715-14.739 13.948-32.256 24.297-59.311 29.798zM938.665 405.331c0-23.565-9.551-42.667-21.333-42.667s-21.333 19.102-21.333 42.667c0 23.565 9.551 42.667 21.333 42.667s21.333-19.102 21.333-42.667zM693.331 639.998v42.667c1.184 0 109.596-0.011 111.217-0.038 43.023-0.725 77.99-9.355 101.813-32.245 24.137-23.189 32.303-56.585 32.303-95.716h-42.667c0 34.3-7.309 53.527-19.196 64.949-12.201 11.723-33.803 19.693-72.973 20.352 0.021 0-0.213 0-0.717 0-0.749 0.002-2.086 0.004-4.043 0.004l-105.739 0.028zM895.998 554.665h42.667l-10.667-149.333h-21.333l-10.667 149.333zM540.294 309.685l37.28 15.251 16.156-39.49-37.282-15.251-16.154 39.49zM594.692 237.687l22.583 42.018 37.583-20.198-22.583-42.018-37.583 20.198zM691.921 210.906l-9.060 46.835 41.89 8.102 9.060-46.833-41.89-8.105zM646.957 356.604c-6.24-5.515-6.959-12.435-6.959-15.273h42.667c0-3.503-0.887-10.899-7.46-16.704-6.462-5.711-13.758-5.734-17.013-5.404-5.668 0.578-10.127 3.245-11.494 4.064l-0.075 0.045c-4.058 2.423-8.676 6.108-13.003 9.796-9.099 7.761-21.043 19.145-33.291 31.467-24.1 24.241-52.122 54.871-63.334 71.45l35.341 23.906c8.681-12.834 33.99-40.87 58.253-65.276 11.93-12.002 22.925-22.436 30.716-29.082 3.887-3.313 6.167-4.981 7.057-5.545-0.851 0.429-2.967 1.329-5.847 1.623-2.615 0.265-9.421 0.35-15.556-5.069zM668.506 359.959c-0.045 0.026-0.092 0.055-0.145 0.090 0.476-0.241 0.553-0.335 0.145-0.090z" />
<glyph unicode="&#xe93e;" glyph-name="animal_spider" d="M699.817 831.582c11.552 2.311 22.793-5.182 25.103-16.735l32-160c1.203-6.020-0.243-12.267-3.972-17.141l-138.667-181.333c-7.157-9.361-20.546-11.145-29.905-3.987-9.361 7.155-11.145 20.544-3.989 29.905l132.8 173.66-30.106 150.53c-2.31 11.553 5.182 22.792 16.736 25.103zM324.183 831.582c-11.552 2.311-22.793-5.182-25.103-16.735l-32-160c-1.203-6.020 0.243-12.267 3.972-17.141l138.667-181.333c7.157-9.361 20.546-11.145 29.907-3.987 9.359 7.155 11.142 20.544 3.987 29.905l-132.8 173.66 30.106 150.53c2.31 11.553-5.182 22.792-16.736 25.103zM889.581 591.249c8.425-8.237 8.576-21.743 0.339-30.167l-93.867-96c-2.17-2.219-4.796-3.936-7.697-5.037l-140.8-53.333c-11.017-4.173-23.332 1.376-27.507 12.395-4.173 11.019 1.376 23.332 12.395 27.507l136.395 51.665 90.575 92.631c8.237 8.425 21.743 8.576 30.167 0.339zM807.49 65.355c11.031 4.137 16.621 16.433 12.484 27.465l-64 170.667c-1.777 4.745-5.186 8.7-9.615 11.159l-96 53.333c-10.298 5.722-23.285 2.010-29.009-8.288-5.722-10.3-2.010-23.287 8.29-29.009l89.139-49.523 61.246-163.319c4.137-11.031 16.433-16.621 27.465-12.484zM844.86 260.307c9.402 7.104 11.264 20.482 4.162 29.882l-72.533 96c-4.437 5.873-11.588 9.043-18.918 8.388l-119.467-10.667c-11.735-1.047-20.401-11.409-19.351-23.145 1.047-11.735 11.409-20.399 23.145-19.351l107.682 9.613 65.399-86.558c7.104-9.402 20.482-11.264 29.882-4.162zM134.419 591.249c-8.424-8.237-8.576-21.743-0.339-30.167l93.867-96c2.17-2.219 4.796-3.936 7.697-5.037l140.8-53.333c11.017-4.173 23.332 1.376 27.507 12.395 4.173 11.019-1.376 23.332-12.395 27.507l-136.395 51.665-90.575 92.631c-8.237 8.425-21.744 8.576-30.168 0.339zM216.51 65.355c-11.032 4.137-16.622 16.433-12.485 27.465l64.001 170.667c1.777 4.745 5.186 8.7 9.615 11.159l96 53.333c10.298 5.722 23.285 2.010 29.009-8.288 5.722-10.3 2.010-23.287-8.29-29.009l-89.139-49.523-61.246-163.319c-4.137-11.031-16.433-16.621-27.465-12.484zM179.14 260.307c-9.401 7.104-11.263 20.482-4.161 29.882l72.533 96c4.437 5.873 11.588 9.043 18.918 8.388l119.467-10.667c11.735-1.047 20.401-11.409 19.351-23.145-1.047-11.735-11.409-20.399-23.145-19.351l-107.682 9.613-65.4-86.558c-7.103-9.402-20.481-11.264-29.882-4.162zM490.667 529.325l-13.054-12.585c-27.366-26.385-50.946-82.598-50.946-154.078 0-52.508 12.858-97.978 31.409-128.898 19.063-31.77 39.454-41.769 53.924-41.769s34.861 9.999 53.924 41.769c18.551 30.921 31.409 76.39 31.409 128.898 0 71.479-23.58 127.693-50.946 154.078l-13.054 12.585v46.671h-42.667v-46.671zM576 547.456c38.259-36.887 64-105.83 64-184.794 0-117.82-57.308-213.333-128-213.333s-128 95.514-128 213.333c0 78.963 25.741 147.906 64 184.794v81.873c0 11.782 9.551 21.333 21.333 21.333s21.333-9.551 21.333-21.333v-10.667h42.667v10.667c0 11.782 9.551 21.333 21.333 21.333s21.333-9.551 21.333-21.333v-81.873z" />
<glyph unicode="&#xe93f;" glyph-name="animal_tick" d="M460.819 669.252c11.607 15.919 29.44 28.045 51.179 28.045 21.737 0 39.571-12.126 51.179-28.045 9.89-13.568 16.098-30.78 17.726-49.301 31.264-25.713 58.121-66.645 77.555-111.9 21.346-49.709 34.874-107.249 34.874-161.233 0-136.817-87.927-218.818-181.333-218.818-93.408 0-181.333 82.001-181.333 218.818 0 53.984 13.527 111.524 34.874 161.233 19.433 45.254 46.291 86.187 77.555 111.9 1.628 18.522 7.834 35.733 17.726 49.301zM495.294 644.113c-5.751-7.887-9.963-19.831-9.963-33.978l0.004-0.772 0.119-11.119-9.045-6.466c-26.063-18.637-52.077-54.944-71.667-100.561-19.418-45.216-31.411-97.037-31.411-144.399 0-117.677 73.015-176.151 138.667-176.151 65.649 0 138.667 58.475 138.667 176.151 0 47.362-11.996 99.183-31.413 144.399-19.588 45.617-45.604 81.924-71.667 100.561l-9.045 6.466 0.122 11.119 0.004 0.772c0 14.146-4.211 26.091-9.965 33.978-5.764 7.906-11.93 10.517-16.702 10.517s-10.94-2.611-16.704-10.517zM606.46 740.629c8.448 8.213 21.954 8.023 30.167-0.425l64-65.828c7.405-7.618 8.077-19.522 1.579-27.923-15.876-20.527-31.211-35.723-50.645-46.406-19.27-10.592-40.836-15.782-67.439-19.292-11.682-1.542-22.4 6.677-23.94 18.359-1.542 11.68 6.677 22.4 18.359 23.94 24.497 3.232 39.985 7.522 52.467 14.383 8.666 4.764 16.736 11.238 25.638 20.966l-50.611 52.058c-8.213 8.448-8.023 21.954 0.425 30.167zM749.745 646.193c10.827-4.646 15.836-17.19 11.189-28.017l-28.8-67.095c-2.281-5.312-6.618-9.47-12.019-11.524l-83.2-31.648c-11.012-4.19-23.334 1.342-27.524 12.354s1.342 23.334 12.354 27.524l74.748 28.433 25.233 58.784c4.649 10.827 17.193 15.838 28.019 11.189zM801.178 562.048c9.798-6.543 12.437-19.791 5.894-29.589l-44.8-67.093c-2.462-3.689-6.012-6.517-10.157-8.094l-83.2-31.648c-11.012-4.188-23.334 1.342-27.524 12.354s1.342 23.337 12.354 27.524l76.83 29.225 41.013 61.425c6.543 9.801 19.791 12.439 29.589 5.897zM657.325 403.599c4.092 11.049 16.365 16.689 27.413 12.597l-7.407-20.004c7.407 20.004 7.407 20.004 7.407 20.004l0.051-0.019 0.081-0.030 0.247-0.094 0.83-0.318c0.695-0.269 1.67-0.655 2.889-1.152 2.43-0.992 5.837-2.436 9.901-4.303 8.070-3.71 18.993-9.203 30.063-16.262 10.933-6.972 22.861-16.004 32.262-27.029 9.37-10.987 17.602-25.606 17.602-43.209 0-25.698-9.348-53.975-17.562-74.251-4.243-10.473-8.474-19.501-11.648-25.924-1.591-3.219-2.927-5.803-3.881-7.61-0.478-0.905-0.86-1.615-1.131-2.114l-0.32-0.591-0.096-0.171-0.030-0.055-0.011-0.019c0 0-0.009-0.015-18.656 10.347l18.656-10.347c-5.722-10.3-18.718-14.025-29.018-8.303-10.295 5.719-14.007 18.701-8.294 28.998l0.047 0.083 0.213 0.393c0.198 0.365 0.503 0.932 0.902 1.687 0.796 1.51 1.961 3.761 3.369 6.609 2.825 5.715 6.594 13.762 10.351 23.036 7.787 19.223 14.441 41.141 14.441 58.231 0 3.791-1.769 8.919-7.401 15.522-5.596 6.564-13.67 12.96-22.737 18.741-8.93 5.696-18.007 10.283-24.937 13.466-3.437 1.579-6.278 2.782-8.224 3.575-0.971 0.397-1.713 0.691-2.189 0.875l-0.589 0.226c-11.042 4.094-16.687 16.367-12.597 27.413zM417.534 740.629c-8.446 8.213-21.952 8.023-30.165-0.425l-64-65.828c-7.405-7.618-8.079-19.522-1.579-27.923 15.876-20.527 31.209-35.723 50.643-46.406 19.27-10.592 40.838-15.782 67.441-19.292 11.68-1.542 22.398 6.677 23.94 18.359 1.54 11.68-6.679 22.4-18.359 23.94-24.499 3.232-39.987 7.522-52.469 14.383-8.666 4.764-16.736 11.238-25.638 20.966l50.613 52.058c8.211 8.448 8.021 21.954-0.427 30.167zM274.249 646.193c-10.827-4.646-15.836-17.19-11.189-28.017l28.8-67.095c2.281-5.312 6.618-9.47 12.019-11.524l83.2-31.648c11.012-4.19 23.337 1.342 27.524 12.354 4.19 11.012-1.342 23.334-12.354 27.524l-74.748 28.433-25.233 58.784c-4.649 10.827-17.193 15.838-28.019 11.189zM222.818 562.048c-9.799-6.543-12.439-19.791-5.897-29.589l44.8-67.093c2.462-3.689 6.014-6.517 10.157-8.094l83.2-31.648c11.012-4.188 23.337 1.342 27.524 12.354 4.19 11.012-1.342 23.337-12.354 27.524l-76.828 29.225-41.015 61.425c-6.543 9.801-19.789 12.439-29.587 5.897zM366.669 403.599c-4.090 11.049-16.365 16.689-27.413 12.597l7.409-20.004c-7.409 20.004-7.409 20.004-7.409 20.004l-0.051-0.019-0.081-0.030-0.247-0.094-0.83-0.318c-0.695-0.269-1.67-0.655-2.886-1.152-2.43-0.992-5.839-2.436-9.903-4.303-8.070-3.71-18.993-9.203-30.063-16.262-10.933-6.972-22.859-16.004-32.262-27.029-9.37-10.987-17.6-25.606-17.6-43.209 0-25.698 9.346-53.975 17.559-74.251 4.243-10.473 8.474-19.501 11.648-25.924 1.591-3.219 2.929-5.803 3.881-7.61 0.478-0.905 0.86-1.615 1.131-2.114l0.322-0.591 0.094-0.171 0.030-0.055 0.011-0.019c0 0 0.009-0.015 18.658 10.347l-18.658-10.347c5.722-10.3 18.718-14.025 29.018-8.303 10.295 5.719 14.007 18.701 8.294 28.998l-0.045 0.083-0.215 0.393c-0.196 0.365-0.503 0.932-0.9 1.687-0.798 1.51-1.961 3.761-3.371 6.609-2.825 5.715-6.594 13.762-10.351 23.036-7.787 19.223-14.438 41.141-14.438 58.231 0 3.791 1.766 8.919 7.398 15.522 5.598 6.564 13.67 12.96 22.737 18.741 8.93 5.696 18.007 10.283 24.937 13.466 3.437 1.579 6.278 2.782 8.224 3.575 0.971 0.397 1.713 0.691 2.191 0.875l0.587 0.226c11.044 4.094 16.689 16.367 12.597 27.413z" />
<glyph unicode="&#xe940;" glyph-name="assembly_point" d="M134.248 825.752c8.331 8.331 21.839 8.331 30.17 0l91.582-91.582v55.164c0 11.782 9.551 21.333 21.333 21.333s21.333-9.551 21.333-21.333v-128h-128c-11.782 0-21.333 9.551-21.333 21.333s9.551 21.333 21.333 21.333h55.164l-91.582 91.582c-8.331 8.331-8.331 21.839 0 30.17zM889.751 70.249c-8.331-8.331-21.839-8.331-30.17 0l-91.582 91.582v-55.164c0-11.782-9.551-21.333-21.333-21.333s-21.333 9.551-21.333 21.333v128h128c11.782 0 21.333-9.551 21.333-21.333s-9.551-21.333-21.333-21.333h-55.164l91.582-91.582c8.331-8.331 8.331-21.839 0-30.17zM134.248 70.249c-8.331 8.331-8.331 21.839 0 30.17l91.582 91.582h-55.164c-11.782 0-21.333 9.551-21.333 21.333s9.551 21.333 21.333 21.333h128v-128c0-11.782-9.551-21.333-21.333-21.333s-21.333 9.551-21.333 21.333v55.164l-91.582-91.582c-8.331-8.331-21.839-8.331-30.17 0zM889.751 825.752c8.331-8.331 8.331-21.839 0-30.17l-91.582-91.582h55.164c11.782 0 21.333-9.551 21.333-21.333s-9.551-21.333-21.333-21.333h-128v128c0 11.782 9.551 21.333 21.333 21.333s21.333-9.551 21.333-21.333v-55.164l91.582 91.582c8.331 8.331 21.839 8.331 30.17 0zM674.133 512c-17.69 0-32 14.31-32 32s14.31 32 32 32c17.69 0 32-14.31 32-32s-14.31-32-32-32zM674.133 469.333c41.252 0 74.667 33.412 74.667 74.667s-33.414 74.667-74.667 74.667c-41.254 0-74.667-33.412-74.667-74.667s33.412-74.667 74.667-74.667zM354.133 512c-17.69 0-32 14.31-32 32s14.31 32 32 32c17.69 0 32-14.31 32-32s-14.31-32-32-32zM354.133 469.333c41.252 0 74.667 33.412 74.667 74.667s-33.414 74.667-74.667 74.667c-41.254 0-74.667-33.412-74.667-74.667s33.412-74.667 74.667-74.667zM512 554.667c5.903 0 10.667 4.764 10.667 10.667s-4.764 10.667-10.667 10.667c-5.903 0-10.667-4.764-10.667-10.667s4.764-10.667 10.667-10.667zM512 512c29.468 0 53.333 23.866 53.333 53.333s-23.866 53.333-53.333 53.333c-29.468 0-53.333-23.866-53.333-53.333s23.866-53.333 53.333-53.333zM600.853 368.109c20.777 10.705 46.095 15.891 60.48 15.891s39.703-5.186 60.48-15.891c22.59-11.637 24.853-21.216 24.853-23.75v-3.025h-170.667v3.025c0 2.534 2.263 12.113 24.853 23.75zM661.333 426.667c-42.72 0-128-27.573-128-82.308v-45.692h256v45.692c0 54.735-85.28 82.308-128 82.308zM302.187 368.109c20.777 10.705 46.095 15.891 60.48 15.891s39.703-5.186 60.48-15.891c22.59-11.637 24.853-21.216 24.853-23.75v-3.025h-170.667v3.025c0 2.534 2.263 12.113 24.853 23.75zM362.667 426.667c-42.72 0-128-27.573-128-82.308v-45.692h256v45.692c0 54.735-85.28 82.308-128 82.308zM598.148 459.578c-4.838-1.779-9.615-3.667-14.293-5.666-21.235-9.075-42.682-21.335-59.341-37.737-4.463-4.393-8.695-9.21-12.514-14.443-3.817 5.233-8.051 10.050-12.512 14.443-16.661 16.401-38.106 28.661-59.343 37.737-4.678 1.999-9.453 3.887-14.293 5.666 27.61 14.306 63.117 21.489 86.148 21.489s58.539-7.183 86.148-21.489z" />
<glyph unicode="&#xe941;" glyph-name="award_ribbon" d="M511.979 832c153.167 0 277.333-124.166 277.333-277.333 0-115.296-70.357-214.161-170.479-256h-0.164v-0.068c-32.843-13.7-68.883-21.265-106.69-21.265-37.79 0-73.813 7.558-106.643 21.246v0.087h-0.211c-100.122 41.839-170.479 140.704-170.479 256 0 153.167 124.166 277.333 277.333 277.333zM661.335 271.588c101.487 53.655 170.643 160.292 170.643 283.078 0 176.732-143.268 320-320 320-176.73 0-320-143.268-320-320 0-122.805 69.177-229.455 170.69-283.104v-228.896c0-7.868 4.331-15.098 11.268-18.81 6.935-3.712 15.354-3.305 21.899 1.058l116.166 77.444 116.166-77.444c6.547-4.363 14.963-4.77 21.901-1.058 6.935 3.712 11.266 10.942 11.266 18.81v228.922zM618.669 252.883v-170.355l-94.833 63.223c-7.166 4.777-16.501 4.777-23.667 0l-94.833-63.223v170.338c33.357-11.787 69.252-18.199 106.643-18.199 37.41 0 73.321 6.419 106.69 18.217zM512.002 704c-82.475 0-149.333-66.859-149.333-149.333s66.859-149.333 149.333-149.333c82.475 0 149.333 66.859 149.333 149.333s-66.859 149.333-149.333 149.333zM320.002 554.667c0 106.039 85.963 192 192 192 106.039 0 192-85.961 192-192s-85.961-192-192-192c-106.037 0-192 85.961-192 192z" />
<glyph unicode="&#xe942;" glyph-name="award_trophy" d="M256 810.667c0 11.782 9.551 21.333 21.333 21.333h469.333c11.782 0 21.333-9.551 21.333-21.333v-21.333h106.667c11.782 0 21.333-9.551 21.333-21.333v-128c0-58.91-47.757-106.667-106.667-106.667h-35.9c-32.879-93.022-117.995-161.367-220.1-169.79v-128.877h149.333c11.782 0 21.333-9.551 21.333-21.333v-128c0-11.782-9.551-21.333-21.333-21.333h-341.333c-11.782 0-21.333 9.551-21.333 21.333v128c0 11.782 9.551 21.333 21.333 21.333h149.333v128.877c-102.106 8.422-187.221 76.768-220.1 169.79h-35.9c-58.91 0-106.667 47.757-106.667 106.667v128c0 11.782 9.551 21.333 21.333 21.333h106.667v21.333zM725.333 618.667v170.667h-426.667v-170.667c0-117.82 95.514-213.333 213.333-213.333s213.333 95.514 213.333 213.333zM768 746.667v-170.667h21.333c35.347 0 64 28.653 64 64v106.667h-85.333zM170.667 746.667h85.333v-170.667h-21.333c-35.346 0-64 28.653-64 64v106.667zM362.667 192v-85.333h298.667v85.333h-298.667z" />
<glyph unicode="&#xe943;" glyph-name="book" d="M298.667 853.333h512c11.782 0 21.333-9.551 21.333-21.333v-640c0-11.782-9.551-21.333-21.333-21.333h-512c-35.347 0-64-28.653-64-64v-21.333h576v-42.667h-597.333c-11.782 0-21.333 9.551-21.333 21.333v682.667c0 58.91 47.757 106.667 106.667 106.667zM234.667 192.009c17.828 13.391 39.987 21.325 64 21.325h490.667v597.333h-490.667c-35.347 0-64-28.654-64-64v-554.658zM490.667 554.667h-106.667v-42.667h106.667v-106.667h42.667v106.667h106.667v42.667h-106.667v106.667h-42.667v-106.667z" />
</font>
</defs>
</svg>
